M48
; DRILL file {KiCad 9.0.5} date 2026-07-17T16:00:09-0400
; FORMAT={-:-/ absolute / inch / decimal}
; #@! TF.CreationDate,2026-07-17T16:00:09-04:00
; #@! TF.GenerationSoftware,Kicad,Pcbnew,9.0.5
; #@! TF.FileFunction,MixedPlating,1,2
FMAT,2
INCH
; #@! TA.AperFunction,Plated,PTH,ViaDrill
T1C0.0310
; #@! TA.AperFunction,Plated,PTH,ComponentDrill
T2C0.0315
; #@! TA.AperFunction,Plated,PTH,ComponentDrill
T3C0.0350
; #@! TA.AperFunction,Plated,PTH,ComponentDrill
T4C0.0354
; #@! TA.AperFunction,Plated,PTH,ComponentDrill
T5C0.0472
; #@! TA.AperFunction,Plated,PTH,ComponentDrill
T6C0.0791
%
G90
G05
T1
X4.0237Y-3.3524
X4.39Y-3.77
X5.48Y-3.03
T2
X4.0692Y-3.0016
X4.2683Y-3.1406
X4.4652Y-3.1406
X4.4692Y-3.0016
X4.5852Y-2.9106
X4.5912Y-3.0416
X4.5912Y-3.1416
X4.5912Y-3.2416
X4.5912Y-3.3416
X4.5912Y-3.4713
X4.5912Y-3.6682
X4.7302Y-3.4706
X4.7302Y-3.5996
X4.9852Y-2.9106
X4.9912Y-3.0416
X4.9912Y-3.1416
X4.9912Y-3.2416
X4.9912Y-3.3416
X5.1302Y-3.4706
X5.1302Y-3.5996
X5.1332Y-3.1086
X5.1342Y-3.2376
X5.33Y-3.1086
X5.331Y-3.2376
T3
X5.5014Y-3.1366
X5.5014Y-3.2366
T4
X4.2816Y-3.2638
X4.2816Y-3.7638
T5
X3.9121Y-3.2189
X3.9121Y-3.3567
T6
X5.7014Y-3.0366
X5.7014Y-3.4366
M30
