G04 #@! TF.GenerationSoftware,KiCad,Pcbnew,9.0.5*
G04 #@! TF.CreationDate,2026-07-17T16:00:21-04:00*
G04 #@! TF.ProjectId,noise_generator,6e6f6973-655f-4676-956e-657261746f72,rev?*
G04 #@! TF.SameCoordinates,Original*
G04 #@! TF.FileFunction,Soldermask,Bot*
G04 #@! TF.FilePolarity,Negative*
%FSLAX46Y46*%
G04 Gerber Fmt 4.6, Leading zero omitted, Abs format (unit mm)*
G04 Created by KiCad (PCBNEW 9.0.5) date 2026-07-17 16:00:21*
%MOMM*%
%LPD*%
G01*
G04 APERTURE LIST*
%ADD10O,1.800000X1.800000*%
%ADD11R,1.800000X1.800000*%
%ADD12O,1.600000X1.600000*%
%ADD13C,1.600000*%
%ADD14O,7.000000X3.500000*%
%ADD15O,2.500000X1.600000*%
%ADD16O,2.400000X1.600000*%
%ADD17C,2.400000*%
G04 APERTURE END LIST*
D10*
X108753136Y-95600971D03*
D11*
X108753136Y-82900971D03*
D12*
X130306284Y-88153010D03*
D13*
X120146284Y-88153010D03*
D12*
X103356884Y-76240410D03*
D13*
X113516884Y-76240410D03*
D14*
X144815284Y-87289410D03*
D15*
X139735284Y-79669410D03*
D14*
X144815284Y-77129410D03*
D15*
X139735284Y-82209410D03*
D12*
X126623284Y-73929010D03*
D13*
X116463284Y-73929010D03*
D16*
X126775684Y-77256410D03*
X126775684Y-79796410D03*
X126775684Y-82336410D03*
X126775684Y-84876410D03*
X116615684Y-84876410D03*
X116615684Y-82336410D03*
X116615684Y-79796410D03*
G36*
G01*
X115415684Y-77806410D02*
X115415684Y-76706410D01*
G75*
G02*
X115665684Y-76456410I250000J0D01*
G01*
X117565684Y-76456410D01*
G75*
G02*
X117815684Y-76706410I0J-250000D01*
G01*
X117815684Y-77806410D01*
G75*
G02*
X117565684Y-78056410I-250000J0D01*
G01*
X115665684Y-78056410D01*
G75*
G02*
X115415684Y-77806410I0J250000D01*
G01*
G37*
D17*
X99366476Y-85260586D03*
G36*
G01*
X98416477Y-80560586D02*
X100316475Y-80560586D01*
G75*
G02*
X100566476Y-80810587I0J-250001D01*
G01*
X100566476Y-82710585D01*
G75*
G02*
X100316475Y-82960586I-250001J0D01*
G01*
X98416477Y-82960586D01*
G75*
G02*
X98166476Y-82710585I0J250001D01*
G01*
X98166476Y-80810587D01*
G75*
G02*
X98416477Y-80560586I250001J0D01*
G01*
G37*
D13*
X130382484Y-78958210D03*
X135382484Y-78958210D03*
X135407884Y-82234810D03*
X130407884Y-82234810D03*
X116617584Y-93171956D03*
X116617584Y-88171956D03*
X113415284Y-79771010D03*
X108415284Y-79771010D03*
D12*
X120146284Y-91429610D03*
D13*
X130306284Y-91429610D03*
M02*
