G04 #@! TF.GenerationSoftware,KiCad,Pcbnew,9.0.5*
G04 #@! TF.CreationDate,2026-07-17T16:00:20-04:00*
G04 #@! TF.ProjectId,noise_generator,6e6f6973-655f-4676-956e-657261746f72,rev?*
G04 #@! TF.SameCoordinates,Original*
G04 #@! TF.FileFunction,Copper,L1,Top*
G04 #@! TF.FilePolarity,Positive*
%FSLAX46Y46*%
G04 Gerber Fmt 4.6, Leading zero omitted, Abs format (unit mm)*
G04 Created by KiCad (PCBNEW 9.0.5) date 2026-07-17 16:00:20*
%MOMM*%
%LPD*%
G01*
G04 APERTURE LIST*
%ADD10C,0.300000*%
G04 #@! TA.AperFunction,ComponentPad*
%ADD11O,1.800000X1.800000*%
G04 #@! TD*
G04 #@! TA.AperFunction,ComponentPad*
%ADD12R,1.800000X1.800000*%
G04 #@! TD*
G04 #@! TA.AperFunction,ComponentPad*
%ADD13O,1.600000X1.600000*%
G04 #@! TD*
G04 #@! TA.AperFunction,ComponentPad*
%ADD14C,1.600000*%
G04 #@! TD*
G04 #@! TA.AperFunction,ComponentPad*
%ADD15O,7.000000X3.500000*%
G04 #@! TD*
G04 #@! TA.AperFunction,ComponentPad*
%ADD16O,2.500000X1.600000*%
G04 #@! TD*
G04 #@! TA.AperFunction,ComponentPad*
%ADD17O,2.400000X1.600000*%
G04 #@! TD*
G04 #@! TA.AperFunction,ComponentPad*
%ADD18C,2.400000*%
G04 #@! TD*
G04 #@! TA.AperFunction,ViaPad*
%ADD19C,1.397000*%
G04 #@! TD*
G04 APERTURE END LIST*
D10*
G36*
X106345958Y-67689306D02*
G01*
X106504751Y-67799238D01*
X106611649Y-67961599D01*
X106647748Y-68158746D01*
X106611518Y-68353155D01*
X106503200Y-68516704D01*
X106343438Y-68628045D01*
X106154549Y-68664974D01*
X105968592Y-68628206D01*
X105809309Y-68516704D01*
X105700991Y-68353155D01*
X105664761Y-68158746D01*
X105700860Y-67961599D01*
X105807758Y-67799238D01*
X105966073Y-67689148D01*
X106154549Y-67652519D01*
X106345958Y-67689306D01*
G37*
G36*
X145340364Y-67689306D02*
G01*
X145499157Y-67799238D01*
X145606056Y-67961599D01*
X145642154Y-68158746D01*
X145605924Y-68353155D01*
X145497606Y-68516704D01*
X145337844Y-68628045D01*
X145148955Y-68664974D01*
X144962998Y-68628206D01*
X144803715Y-68516704D01*
X144695397Y-68353155D01*
X144659167Y-68158746D01*
X144695266Y-67961599D01*
X144802164Y-67799238D01*
X144960479Y-67689148D01*
X145148955Y-67652519D01*
X145340364Y-67689306D01*
G37*
G36*
X149985314Y-72068262D02*
G01*
X99789581Y-72068262D01*
X99789581Y-66816251D01*
X100354025Y-66816251D01*
X100354025Y-69895802D01*
X101783063Y-69895802D01*
X101783063Y-66864640D01*
X101806775Y-66647061D01*
X101865647Y-66517448D01*
X101951513Y-66446330D01*
X102071538Y-66421691D01*
X102196773Y-66446767D01*
X102285637Y-66518616D01*
X102346041Y-66648337D01*
X102370250Y-66864640D01*
X102370250Y-69895802D01*
X103799288Y-69895802D01*
X103799288Y-68155334D01*
X104326298Y-68155334D01*
X104326617Y-68158746D01*
X104360445Y-68520731D01*
X104460372Y-68852380D01*
X104626274Y-69157552D01*
X104863544Y-69441375D01*
X105148919Y-69676864D01*
X105456051Y-69841770D01*
X105790087Y-69941210D01*
X106158271Y-69975210D01*
X106526405Y-69941289D01*
X106679457Y-69895802D01*
X108508258Y-69895802D01*
X109826249Y-69895802D01*
X109826249Y-68605418D01*
X110238489Y-68605418D01*
X110238489Y-69995062D01*
X110428635Y-69995062D01*
X110874429Y-69966789D01*
X111213375Y-69891079D01*
X111467766Y-69778240D01*
X111713571Y-69594739D01*
X111913311Y-69367724D01*
X112070334Y-69091705D01*
X112184068Y-68757893D01*
X112250061Y-68354785D01*
X112287168Y-68164020D01*
X112967837Y-68164020D01*
X113001899Y-68538981D01*
X113100846Y-68874084D01*
X113263740Y-69177248D01*
X113494847Y-69454093D01*
X113774141Y-69682306D01*
X114080002Y-69843460D01*
X114418046Y-69941462D01*
X114796088Y-69975210D01*
X115105246Y-69948854D01*
X115399358Y-69870431D01*
X115682710Y-69738597D01*
X115958674Y-69549011D01*
X115205847Y-68638298D01*
X115071314Y-68771715D01*
X114948140Y-68841830D01*
X114830829Y-68863494D01*
X114685290Y-68840672D01*
X114560804Y-68773358D01*
X114451468Y-68655978D01*
X114373802Y-68510608D01*
X114324181Y-68331452D01*
X114306300Y-68110357D01*
X114324516Y-67898917D01*
X114375545Y-67724729D01*
X114456431Y-67580555D01*
X114568760Y-67464266D01*
X114696251Y-67397314D01*
X114844787Y-67374590D01*
X115008712Y-67398253D01*
X115127459Y-67463346D01*
X115212786Y-67570424D01*
X115266643Y-67731927D01*
X114612456Y-67731927D01*
X114562887Y-67908360D01*
X114546696Y-68082440D01*
X114557834Y-68212193D01*
X114594465Y-68367193D01*
X116578430Y-68367193D01*
X116593319Y-68115630D01*
X116592981Y-68111908D01*
X118685230Y-68111908D01*
X118713751Y-68449922D01*
X118796541Y-68753097D01*
X118932292Y-69027900D01*
X119123526Y-69279147D01*
X119358615Y-69490926D01*
X119612090Y-69638182D01*
X119888434Y-69726620D01*
X120194297Y-69756837D01*
X120454614Y-69732992D01*
X120742089Y-69657267D01*
X120742089Y-68446601D01*
X120607438Y-68491710D01*
X120478739Y-68506157D01*
X120299718Y-68473604D01*
X120154282Y-68377739D01*
X120056781Y-68234272D01*
X120023693Y-68056384D01*
X120057388Y-67886018D01*
X120161106Y-67733478D01*
X120311743Y-67627467D01*
X120482462Y-67592963D01*
X120669680Y-67626164D01*
X120797495Y-67718109D01*
X120880772Y-67876795D01*
X120913313Y-68132691D01*
X120913313Y-69431760D01*
X120889412Y-69710218D01*
X120824577Y-69923227D01*
X120725029Y-70085327D01*
X120585278Y-70209562D01*
X120410812Y-70285622D01*
X120190885Y-70312695D01*
X119936265Y-70278342D01*
X119667287Y-70169698D01*
X119667287Y-71381604D01*
X120053092Y-71477038D01*
X120326127Y-71503818D01*
X120661766Y-71479164D01*
X120962123Y-71407921D01*
X121232904Y-71292211D01*
X121478639Y-71131478D01*
X121702433Y-70922525D01*
X121928911Y-70618179D01*
X122093015Y-70270620D01*
X122195181Y-69871742D01*
X122230994Y-69410977D01*
X122230994Y-68274757D01*
X122224408Y-68164020D01*
X122784680Y-68164020D01*
X122818742Y-68538981D01*
X122917689Y-68874084D01*
X123080583Y-69177248D01*
X123311690Y-69454093D01*
X123590984Y-69682306D01*
X123896845Y-69843460D01*
X124234889Y-69941462D01*
X124612931Y-69975210D01*
X124922089Y-69948854D01*
X125216201Y-69870431D01*
X125499553Y-69738597D01*
X125775517Y-69549011D01*
X125022690Y-68638298D01*
X124888157Y-68771715D01*
X124764983Y-68841830D01*
X124647672Y-68863494D01*
X124502133Y-68840672D01*
X124377647Y-68773358D01*
X124268311Y-68655978D01*
X124190645Y-68510608D01*
X124141024Y-68331452D01*
X124123143Y-68110357D01*
X124141359Y-67898917D01*
X124192388Y-67724729D01*
X124273274Y-67580555D01*
X124385603Y-67464266D01*
X124513094Y-67397314D01*
X124661630Y-67374590D01*
X124825555Y-67398253D01*
X124944302Y-67463346D01*
X125029629Y-67570424D01*
X125083486Y-67731927D01*
X124429299Y-67731927D01*
X124379730Y-67908360D01*
X124363539Y-68082440D01*
X124374677Y-68212193D01*
X124411308Y-68367193D01*
X126395273Y-68367193D01*
X126410162Y-68115630D01*
X126395978Y-67959605D01*
X126916080Y-67959605D01*
X126916080Y-69895802D01*
X128234070Y-69895802D01*
X128234070Y-67935101D01*
X128263649Y-67769594D01*
X128339080Y-67683031D01*
X128467022Y-67652519D01*
X128597170Y-67683226D01*
X128673548Y-67769972D01*
X128703385Y-67935101D01*
X128703385Y-69895802D01*
X130021066Y-69895802D01*
X130021066Y-68164020D01*
X130566687Y-68164020D01*
X130600749Y-68538981D01*
X130699696Y-68874084D01*
X130862590Y-69177248D01*
X131093697Y-69454093D01*
X131372991Y-69682306D01*
X131678852Y-69843460D01*
X132016896Y-69941462D01*
X132394938Y-69975210D01*
X132704096Y-69948854D01*
X132998208Y-69870431D01*
X133281560Y-69738597D01*
X133557524Y-69549011D01*
X132804696Y-68638298D01*
X132670164Y-68771715D01*
X132546990Y-68841830D01*
X132429679Y-68863494D01*
X132284140Y-68840672D01*
X132159654Y-68773358D01*
X132050318Y-68655978D01*
X131972651Y-68510608D01*
X131923031Y-68331452D01*
X131905150Y-68110357D01*
X131923366Y-67898917D01*
X131974395Y-67724729D01*
X132055281Y-67580555D01*
X132167610Y-67464266D01*
X132295101Y-67397314D01*
X132443637Y-67374590D01*
X132607562Y-67398253D01*
X132726309Y-67463346D01*
X132811636Y-67570424D01*
X132865493Y-67731927D01*
X132211306Y-67731927D01*
X132161737Y-67908360D01*
X132145546Y-68082440D01*
X132156684Y-68212193D01*
X132193315Y-68367193D01*
X134177280Y-68367193D01*
X134192169Y-68115630D01*
X134181454Y-67997759D01*
X134698087Y-67997759D01*
X134698087Y-69895802D01*
X136016077Y-69895802D01*
X136016077Y-68247150D01*
X136025896Y-68158746D01*
X136785344Y-68158746D01*
X136819430Y-68539898D01*
X136918117Y-68878240D01*
X137079941Y-69182037D01*
X137308632Y-69457195D01*
X137585977Y-69683313D01*
X137892177Y-69843578D01*
X138233130Y-69941411D01*
X138617007Y-69975210D01*
X138918510Y-69939228D01*
X138918510Y-68572848D01*
X138755973Y-68642465D01*
X138592812Y-68664974D01*
X138404983Y-68630501D01*
X138256258Y-68529732D01*
X138157816Y-68377810D01*
X138123807Y-68183872D01*
X138160039Y-67998065D01*
X138269906Y-67838012D01*
X138430537Y-67728397D01*
X138617007Y-67692223D01*
X138756819Y-67710756D01*
X138872198Y-67763917D01*
X138969071Y-67852901D01*
X139039301Y-67966626D01*
X139083893Y-68108215D01*
X139099970Y-68284993D01*
X139099970Y-69895802D01*
X140417651Y-69895802D01*
X140417651Y-68191626D01*
X140401516Y-67987212D01*
X141012902Y-67987212D01*
X141034254Y-68364704D01*
X141094200Y-68684996D01*
X141187976Y-68956577D01*
X141312855Y-69186711D01*
X141487654Y-69405856D01*
X141696508Y-69592489D01*
X141942847Y-69748462D01*
X142210902Y-69863619D01*
X142488380Y-69932282D01*
X142778805Y-69955358D01*
X142937932Y-69943881D01*
X142937932Y-68557959D01*
X142707787Y-68536944D01*
X142555350Y-68483175D01*
X142458070Y-68404726D01*
X142394249Y-68293433D01*
X142358482Y-68155334D01*
X143320704Y-68155334D01*
X143321023Y-68158746D01*
X143354851Y-68520731D01*
X143454779Y-68852380D01*
X143620680Y-69157552D01*
X143857951Y-69441375D01*
X144143325Y-69676864D01*
X144450457Y-69841770D01*
X144784494Y-69941210D01*
X145152677Y-69975210D01*
X145520812Y-69941289D01*
X145854455Y-69842130D01*
X146160873Y-69677786D01*
X146445232Y-69443237D01*
X146681507Y-69160455D01*
X146846959Y-68855381D01*
X146946773Y-68522802D01*
X146980927Y-68155334D01*
X146966318Y-67997759D01*
X147502664Y-67997759D01*
X147502664Y-69895802D01*
X148820655Y-69895802D01*
X148820655Y-68247150D01*
X148848648Y-67995127D01*
X148918393Y-67844276D01*
X149020745Y-67760948D01*
X149164654Y-67731927D01*
X149276517Y-67746773D01*
X149420870Y-67797997D01*
X149420870Y-66388191D01*
X149015453Y-66342283D01*
X148677955Y-66372376D01*
X148387535Y-66458367D01*
X148135281Y-66597564D01*
X147914905Y-66792366D01*
X147739583Y-67027981D01*
X147611494Y-67302174D01*
X147531066Y-67622279D01*
X147502664Y-67997759D01*
X146966318Y-67997759D01*
X146947343Y-67793099D01*
X146848986Y-67463507D01*
X146685636Y-67159515D01*
X146452056Y-66876117D01*
X146170865Y-66640018D01*
X145869429Y-66475213D01*
X145542745Y-66376106D01*
X145183696Y-66342283D01*
X144798449Y-66376230D01*
X144453953Y-66474774D01*
X144142351Y-66636660D01*
X143857951Y-66865571D01*
X143621758Y-67143962D01*
X143455797Y-67447628D01*
X143355253Y-67782118D01*
X143320704Y-68155334D01*
X142358482Y-68155334D01*
X142348654Y-68117389D01*
X142330583Y-67851039D01*
X142913427Y-67851039D01*
X142913427Y-66461395D01*
X142330583Y-66461395D01*
X142330583Y-65131307D01*
X141012902Y-65131307D01*
X141012902Y-67987212D01*
X140401516Y-67987212D01*
X140384063Y-67766110D01*
X140289134Y-67405967D01*
X140137986Y-67099613D01*
X139930655Y-66838274D01*
X139672793Y-66626445D01*
X139371202Y-66472642D01*
X139017319Y-66376316D01*
X138599636Y-66342283D01*
X138231260Y-66376115D01*
X137898766Y-66474838D01*
X137594737Y-66638148D01*
X137313906Y-66870844D01*
X137081344Y-67151498D01*
X136918021Y-67455795D01*
X136819223Y-67789050D01*
X136785344Y-68158746D01*
X136025896Y-68158746D01*
X136044070Y-67995127D01*
X136113815Y-67844276D01*
X136216167Y-67760948D01*
X136360076Y-67731927D01*
X136471939Y-67746773D01*
X136616292Y-67797997D01*
X136616292Y-66388191D01*
X136210875Y-66342283D01*
X135873377Y-66372376D01*
X135582957Y-66458367D01*
X135330704Y-66597564D01*
X135110327Y-66792366D01*
X134935005Y-67027981D01*
X134806916Y-67302174D01*
X134726488Y-67622279D01*
X134698087Y-67997759D01*
X134181454Y-67997759D01*
X134158959Y-67750307D01*
X134062384Y-67423034D01*
X133903235Y-67126202D01*
X133677257Y-66854404D01*
X133404352Y-66630056D01*
X133105457Y-66471705D01*
X132775064Y-66375433D01*
X132405484Y-66342283D01*
X132027726Y-66376349D01*
X131688788Y-66475448D01*
X131380942Y-66638757D01*
X131098660Y-66870534D01*
X130864788Y-67151026D01*
X130700410Y-67456105D01*
X130600863Y-67791211D01*
X130566687Y-68164020D01*
X130021066Y-68164020D01*
X130021066Y-68063208D01*
X129995864Y-67683285D01*
X129925488Y-67367085D01*
X129815541Y-67103925D01*
X129668381Y-66885113D01*
X129424230Y-66647419D01*
X129148070Y-66480052D01*
X128833425Y-66377824D01*
X128470434Y-66342283D01*
X128152893Y-66372173D01*
X127867173Y-66459353D01*
X127606586Y-66603678D01*
X127366473Y-66809737D01*
X127169490Y-67056801D01*
X127030131Y-67327237D01*
X126945297Y-67625933D01*
X126916080Y-67959605D01*
X126395978Y-67959605D01*
X126376952Y-67750307D01*
X126280377Y-67423034D01*
X126121228Y-67126202D01*
X125895250Y-66854404D01*
X125622345Y-66630056D01*
X125323450Y-66471705D01*
X124993057Y-66375433D01*
X124623477Y-66342283D01*
X124245719Y-66376349D01*
X123906781Y-66475448D01*
X123598935Y-66638757D01*
X123316653Y-66870534D01*
X123082781Y-67151026D01*
X122918403Y-67456105D01*
X122818856Y-67791211D01*
X122784680Y-68164020D01*
X122224408Y-68164020D01*
X122204711Y-67832835D01*
X122132236Y-67473309D01*
X122020935Y-67182113D01*
X121874897Y-66947461D01*
X121719028Y-66779419D01*
X121525225Y-66632531D01*
X121288021Y-66506683D01*
X121035006Y-66415250D01*
X120775353Y-66360612D01*
X120506656Y-66342283D01*
X120131752Y-66375428D01*
X119795742Y-66471745D01*
X119491063Y-66630159D01*
X119212240Y-66854404D01*
X118980257Y-67126974D01*
X118817492Y-67423470D01*
X118719026Y-67749238D01*
X118685230Y-68111908D01*
X116592981Y-68111908D01*
X116560109Y-67750307D01*
X116463534Y-67423034D01*
X116304385Y-67126202D01*
X116078407Y-66854404D01*
X115805502Y-66630056D01*
X115506607Y-66471705D01*
X115176214Y-66375433D01*
X114806634Y-66342283D01*
X114428876Y-66376349D01*
X114089938Y-66475448D01*
X113782092Y-66638757D01*
X113499810Y-66870534D01*
X113265938Y-67151026D01*
X113101560Y-67456105D01*
X113002013Y-67791211D01*
X112967837Y-68164020D01*
X112287168Y-68164020D01*
X112302333Y-68086061D01*
X112377238Y-67956504D01*
X112504589Y-67886697D01*
X112756909Y-67856933D01*
X112756909Y-66461395D01*
X112354595Y-66461395D01*
X112016115Y-66487603D01*
X111731782Y-66561391D01*
X111491991Y-66678328D01*
X111289408Y-66837964D01*
X111100642Y-67061693D01*
X110997210Y-67270987D01*
X110941919Y-67529205D01*
X110897640Y-68024745D01*
X110867452Y-68237635D01*
X110815040Y-68382445D01*
X110746268Y-68477310D01*
X110650376Y-68543393D01*
X110509459Y-68588214D01*
X110307351Y-68605418D01*
X110238489Y-68605418D01*
X109826249Y-68605418D01*
X109826249Y-66421691D01*
X108508258Y-66421691D01*
X108508258Y-69895802D01*
X106679457Y-69895802D01*
X106860049Y-69842130D01*
X107166467Y-69677786D01*
X107450826Y-69443237D01*
X107687101Y-69160455D01*
X107852553Y-68855381D01*
X107952367Y-68522802D01*
X107986521Y-68155334D01*
X107952937Y-67793099D01*
X107854580Y-67463507D01*
X107691230Y-67159515D01*
X107457650Y-66876117D01*
X107176459Y-66640018D01*
X106875023Y-66475213D01*
X106548339Y-66376106D01*
X106189290Y-66342283D01*
X105804043Y-66376230D01*
X105459547Y-66474774D01*
X105147945Y-66636660D01*
X104863544Y-66865571D01*
X104627352Y-67143962D01*
X104461391Y-67447628D01*
X104360847Y-67782118D01*
X104326298Y-68155334D01*
X103799288Y-68155334D01*
X103799288Y-66864640D01*
X103768444Y-66414055D01*
X103682731Y-66043811D01*
X103549377Y-65739831D01*
X103386318Y-65511909D01*
X108511981Y-65511909D01*
X108533362Y-65688657D01*
X108594877Y-65837995D01*
X108697163Y-65966335D01*
X108829944Y-66063742D01*
X108985650Y-66123025D01*
X109170821Y-66143762D01*
X109355992Y-66123025D01*
X109511697Y-66063742D01*
X109644478Y-65966335D01*
X109746765Y-65837995D01*
X109808280Y-65688657D01*
X109829661Y-65511909D01*
X109808022Y-65347179D01*
X109743928Y-65199230D01*
X109633932Y-65063066D01*
X109494374Y-64956884D01*
X109341660Y-64894430D01*
X109170821Y-64873231D01*
X108999971Y-64894423D01*
X108847150Y-64956873D01*
X108707399Y-65063066D01*
X108597591Y-65199208D01*
X108533591Y-65347158D01*
X108511981Y-65511909D01*
X103386318Y-65511909D01*
X103371228Y-65490816D01*
X103142389Y-65287441D01*
X102867348Y-65139159D01*
X102536643Y-65045563D01*
X102137298Y-65012195D01*
X101738415Y-65045487D01*
X101395730Y-65140347D01*
X101099091Y-65292989D01*
X100841021Y-65504774D01*
X100632126Y-65764945D01*
X100481123Y-66064722D01*
X100387074Y-66411742D01*
X100354025Y-66816251D01*
X99789581Y-66816251D01*
X99789581Y-64308787D01*
X149985314Y-64308787D01*
X149985314Y-72068262D01*
G37*
G36*
X100621241Y-88557669D02*
G01*
X100721848Y-88658276D01*
X100775027Y-88764635D01*
X100837983Y-89016456D01*
X100837983Y-89193815D01*
X100775027Y-89445636D01*
X100721848Y-89551996D01*
X100621242Y-89652602D01*
X100463640Y-89705136D01*
X100280840Y-89705136D01*
X100280840Y-88505136D01*
X100463643Y-88505136D01*
X100621241Y-88557669D01*
G37*
G36*
X101304650Y-90171803D02*
G01*
X96671316Y-90171803D01*
X96671316Y-88997993D01*
X96837983Y-88997993D01*
X96837983Y-89212279D01*
X96838485Y-89217382D01*
X96838160Y-89219570D01*
X96839779Y-89230520D01*
X96840865Y-89241543D01*
X96841712Y-89243587D01*
X96842462Y-89248659D01*
X96913890Y-89534373D01*
X96914661Y-89536531D01*
X96914738Y-89537612D01*
X96919396Y-89549786D01*
X96923783Y-89562064D01*
X96924427Y-89562934D01*
X96925247Y-89565075D01*
X96996676Y-89707932D01*
X97004603Y-89720525D01*
X97006119Y-89724185D01*
X97009500Y-89728304D01*
X97012341Y-89732818D01*
X97015334Y-89735414D01*
X97024774Y-89746916D01*
X97167631Y-89889774D01*
X97190361Y-89908429D01*
X97195340Y-89910491D01*
X97199412Y-89914023D01*
X97226263Y-89926011D01*
X97440549Y-89997439D01*
X97455061Y-90000738D01*
X97458719Y-90002254D01*
X97464021Y-90002776D01*
X97469223Y-90003959D01*
X97473177Y-90003677D01*
X97487983Y-90005136D01*
X97630840Y-90005136D01*
X97645645Y-90003677D01*
X97649600Y-90003959D01*
X97654801Y-90002776D01*
X97660104Y-90002254D01*
X97663761Y-90000738D01*
X97678274Y-89997439D01*
X97892560Y-89926011D01*
X97919411Y-89914023D01*
X97923484Y-89910489D01*
X97928462Y-89908428D01*
X97951193Y-89889773D01*
X98022621Y-89818344D01*
X98041275Y-89795614D01*
X98061446Y-89746916D01*
X98063672Y-89741543D01*
X98066554Y-89712279D01*
X98066554Y-89212279D01*
X98063672Y-89183015D01*
X98041274Y-89128943D01*
X97999890Y-89087559D01*
X97945818Y-89065161D01*
X97916554Y-89062279D01*
X97630840Y-89062279D01*
X97601576Y-89065161D01*
X97547504Y-89087559D01*
X97506120Y-89128943D01*
X97483722Y-89183015D01*
X97483722Y-89241543D01*
X97506120Y-89295615D01*
X97547504Y-89336999D01*
X97601576Y-89359397D01*
X97630840Y-89362279D01*
X97766554Y-89362279D01*
X97766554Y-89650147D01*
X97764099Y-89652602D01*
X97606497Y-89705136D01*
X97512326Y-89705136D01*
X97354723Y-89652602D01*
X97254118Y-89551996D01*
X97200937Y-89445636D01*
X97137983Y-89193815D01*
X97137983Y-89016456D01*
X97200937Y-88764635D01*
X97254118Y-88658275D01*
X97354724Y-88557669D01*
X97512326Y-88505136D01*
X97666859Y-88505136D01*
X97778043Y-88560729D01*
X97805507Y-88571238D01*
X97863887Y-88575387D01*
X97919409Y-88556880D01*
X97963625Y-88518533D01*
X97989799Y-88466184D01*
X97993948Y-88407804D01*
X97976392Y-88355136D01*
X98409411Y-88355136D01*
X98409411Y-89855136D01*
X98412293Y-89884400D01*
X98434691Y-89938472D01*
X98476075Y-89979856D01*
X98530147Y-90002254D01*
X98588675Y-90002254D01*
X98642747Y-89979856D01*
X98684131Y-89938472D01*
X98706529Y-89884400D01*
X98709411Y-89855136D01*
X98709411Y-88919969D01*
X99286318Y-89929557D01*
X99290695Y-89935724D01*
X99291834Y-89938472D01*
X99294633Y-89941271D01*
X99303339Y-89953535D01*
X99319112Y-89965750D01*
X99333218Y-89979856D01*
X99342051Y-89983514D01*
X99349613Y-89989371D01*
X99368861Y-89994620D01*
X99387290Y-90002254D01*
X99396852Y-90002254D01*
X99406077Y-90004770D01*
X99425868Y-90002254D01*
X99445818Y-90002254D01*
X99454651Y-89998594D01*
X99464137Y-89997389D01*
X99481459Y-89987490D01*
X99499890Y-89979856D01*
X99506650Y-89973095D01*
X99514953Y-89968351D01*
X99527166Y-89952579D01*
X99541274Y-89938472D01*
X99544933Y-89929636D01*
X99550788Y-89922077D01*
X99556036Y-89902832D01*
X99563672Y-89884400D01*
X99565145Y-89869435D01*
X99566188Y-89865614D01*
X99565812Y-89862662D01*
X99566554Y-89855136D01*
X99566554Y-88355136D01*
X99980840Y-88355136D01*
X99980840Y-89855136D01*
X99983722Y-89884400D01*
X100006120Y-89938472D01*
X100047504Y-89979856D01*
X100101576Y-90002254D01*
X100130840Y-90005136D01*
X100487983Y-90005136D01*
X100502788Y-90003677D01*
X100506743Y-90003959D01*
X100511944Y-90002776D01*
X100517247Y-90002254D01*
X100520904Y-90000738D01*
X100535417Y-89997439D01*
X100749703Y-89926011D01*
X100776554Y-89914023D01*
X100780625Y-89910491D01*
X100785605Y-89908429D01*
X100808335Y-89889774D01*
X100951192Y-89746916D01*
X100960630Y-89735414D01*
X100963625Y-89732818D01*
X100966465Y-89728304D01*
X100969847Y-89724185D01*
X100971362Y-89720525D01*
X100979290Y-89707932D01*
X101050719Y-89565076D01*
X101051538Y-89562933D01*
X101052183Y-89562064D01*
X101056567Y-89549792D01*
X101061228Y-89537612D01*
X101061304Y-89536531D01*
X101062076Y-89534373D01*
X101133504Y-89248659D01*
X101134253Y-89243587D01*
X101135101Y-89241543D01*
X101136186Y-89230520D01*
X101137806Y-89219570D01*
X101137480Y-89217382D01*
X101137983Y-89212279D01*
X101137983Y-88997993D01*
X101137480Y-88992889D01*
X101137806Y-88990702D01*
X101136186Y-88979751D01*
X101135101Y-88968729D01*
X101134253Y-88966684D01*
X101133504Y-88961613D01*
X101062076Y-88675899D01*
X101061304Y-88673740D01*
X101061228Y-88672660D01*
X101056567Y-88660479D01*
X101052183Y-88648208D01*
X101051538Y-88647338D01*
X101050719Y-88645196D01*
X100979290Y-88502340D01*
X100971363Y-88489748D01*
X100969847Y-88486086D01*
X100966463Y-88481963D01*
X100963625Y-88477454D01*
X100960632Y-88474858D01*
X100951192Y-88463356D01*
X100808335Y-88320499D01*
X100785604Y-88301844D01*
X100780624Y-88299781D01*
X100776554Y-88296251D01*
X100749703Y-88284262D01*
X100535417Y-88212834D01*
X100520909Y-88209535D01*
X100517247Y-88208018D01*
X100511938Y-88207495D01*
X100506744Y-88206314D01*
X100502794Y-88206594D01*
X100487983Y-88205136D01*
X100130840Y-88205136D01*
X100101576Y-88208018D01*
X100047504Y-88230416D01*
X100006120Y-88271800D01*
X99983722Y-88325872D01*
X99980840Y-88355136D01*
X99566554Y-88355136D01*
X99563672Y-88325872D01*
X99541274Y-88271800D01*
X99499890Y-88230416D01*
X99445818Y-88208018D01*
X99387290Y-88208018D01*
X99333218Y-88230416D01*
X99291834Y-88271800D01*
X99269436Y-88325872D01*
X99266554Y-88355136D01*
X99266554Y-89290300D01*
X98689647Y-88280715D01*
X98685269Y-88274547D01*
X98684131Y-88271800D01*
X98681331Y-88269000D01*
X98672626Y-88256737D01*
X98656854Y-88244523D01*
X98642747Y-88230416D01*
X98633911Y-88226756D01*
X98626352Y-88220902D01*
X98607107Y-88215653D01*
X98588675Y-88208018D01*
X98579113Y-88208018D01*
X98569888Y-88205502D01*
X98550097Y-88208018D01*
X98530147Y-88208018D01*
X98521313Y-88211677D01*
X98511828Y-88212883D01*
X98494505Y-88222781D01*
X98476075Y-88230416D01*
X98469314Y-88237176D01*
X98461012Y-88241921D01*
X98448798Y-88257692D01*
X98434691Y-88271800D01*
X98431031Y-88280635D01*
X98425177Y-88288195D01*
X98419928Y-88307439D01*
X98412293Y-88325872D01*
X98410819Y-88340838D01*
X98409777Y-88344659D01*
X98410152Y-88347610D01*
X98409411Y-88355136D01*
X97976392Y-88355136D01*
X97975440Y-88352281D01*
X97937094Y-88308066D01*
X97912208Y-88292401D01*
X97769351Y-88220972D01*
X97741888Y-88210463D01*
X97736513Y-88210081D01*
X97731533Y-88208018D01*
X97702269Y-88205136D01*
X97487983Y-88205136D01*
X97473171Y-88206594D01*
X97469222Y-88206314D01*
X97464027Y-88207495D01*
X97458719Y-88208018D01*
X97455057Y-88209534D01*
X97440548Y-88212834D01*
X97226263Y-88284263D01*
X97199412Y-88296251D01*
X97195342Y-88299780D01*
X97190361Y-88301844D01*
X97167631Y-88320499D01*
X97024774Y-88463356D01*
X97015334Y-88474857D01*
X97012341Y-88477454D01*
X97009500Y-88481967D01*
X97006119Y-88486087D01*
X97004603Y-88489746D01*
X96996676Y-88502340D01*
X96925247Y-88645197D01*
X96924427Y-88647337D01*
X96923783Y-88648208D01*
X96919396Y-88660485D01*
X96914738Y-88672660D01*
X96914661Y-88673740D01*
X96913890Y-88675899D01*
X96842462Y-88961613D01*
X96841712Y-88966684D01*
X96840865Y-88968729D01*
X96839779Y-88979751D01*
X96838160Y-88990702D01*
X96838485Y-88992889D01*
X96837983Y-88997993D01*
X96671316Y-88997993D01*
X96671316Y-88038469D01*
X101304650Y-88038469D01*
X101304650Y-90171803D01*
G37*
G36*
X99219577Y-77456517D02*
G01*
X99256581Y-77493521D01*
X99301288Y-77582934D01*
X99301288Y-77869256D01*
X99256580Y-77958670D01*
X99219576Y-77995675D01*
X99130163Y-78040382D01*
X98915269Y-78040382D01*
X98825856Y-77995675D01*
X98788850Y-77958669D01*
X98744145Y-77869257D01*
X98744145Y-77582933D01*
X98788850Y-77493522D01*
X98825855Y-77456517D01*
X98915269Y-77411810D01*
X99130163Y-77411810D01*
X99219577Y-77456517D01*
G37*
G36*
X101195349Y-79078477D02*
G01*
X96494645Y-79078477D01*
X96494645Y-78161118D01*
X96661312Y-78161118D01*
X96661312Y-78219646D01*
X96683710Y-78273718D01*
X96725094Y-78315102D01*
X96779166Y-78337500D01*
X96808430Y-78340382D01*
X97229859Y-78340382D01*
X97229859Y-78761810D01*
X97232741Y-78791074D01*
X97255139Y-78845146D01*
X97296523Y-78886530D01*
X97350595Y-78908928D01*
X97409123Y-78908928D01*
X97463195Y-78886530D01*
X97504579Y-78845146D01*
X97526977Y-78791074D01*
X97529859Y-78761810D01*
X97529859Y-78340382D01*
X97951288Y-78340382D01*
X97980552Y-78337500D01*
X98034624Y-78315102D01*
X98076008Y-78273718D01*
X98098406Y-78219646D01*
X98098406Y-78161118D01*
X98076008Y-78107046D01*
X98034624Y-78065662D01*
X97980552Y-78043264D01*
X97951288Y-78040382D01*
X97529859Y-78040382D01*
X97529859Y-77618953D01*
X97526977Y-77589689D01*
X97509511Y-77547524D01*
X98444145Y-77547524D01*
X98444145Y-77904667D01*
X98447027Y-77933931D01*
X98449089Y-77938909D01*
X98449471Y-77944285D01*
X98459981Y-77971749D01*
X98531409Y-78114606D01*
X98539336Y-78127199D01*
X98540852Y-78130859D01*
X98544233Y-78134978D01*
X98547074Y-78139492D01*
X98550067Y-78142088D01*
X98559507Y-78153590D01*
X98630936Y-78225019D01*
X98642437Y-78234457D01*
X98645034Y-78237452D01*
X98649547Y-78240292D01*
X98653667Y-78243674D01*
X98657326Y-78245189D01*
X98669920Y-78253117D01*
X98812776Y-78324546D01*
X98840240Y-78335055D01*
X98845614Y-78335436D01*
X98850595Y-78337500D01*
X98879859Y-78340382D01*
X99165573Y-78340382D01*
X99194837Y-78337500D01*
X99199814Y-78335438D01*
X99205192Y-78335056D01*
X99232655Y-78324546D01*
X99247075Y-78317335D01*
X99240639Y-78343080D01*
X99120432Y-78523390D01*
X99076718Y-78567104D01*
X98987306Y-78611810D01*
X98737002Y-78611810D01*
X98707738Y-78614692D01*
X98653666Y-78637090D01*
X98612282Y-78678474D01*
X98589884Y-78732546D01*
X98589884Y-78791074D01*
X98612282Y-78845146D01*
X98653666Y-78886530D01*
X98707738Y-78908928D01*
X98737002Y-78911810D01*
X99022716Y-78911810D01*
X99051980Y-78908928D01*
X99056958Y-78906865D01*
X99062334Y-78906484D01*
X99089798Y-78895974D01*
X99232655Y-78824546D01*
X99245248Y-78816618D01*
X99248908Y-78815103D01*
X99253027Y-78811721D01*
X99257541Y-78808881D01*
X99260137Y-78805887D01*
X99271639Y-78796448D01*
X99343068Y-78725019D01*
X99343134Y-78724937D01*
X99343179Y-78724908D01*
X99352545Y-78713471D01*
X99361723Y-78702288D01*
X99361742Y-78702239D01*
X99361810Y-78702158D01*
X99504667Y-78487872D01*
X99513280Y-78471716D01*
X99515487Y-78468739D01*
X99516743Y-78465222D01*
X99518502Y-78461924D01*
X99519221Y-78458285D01*
X99525380Y-78441048D01*
X99596809Y-78155334D01*
X99597559Y-78150261D01*
X99598406Y-78148217D01*
X99599491Y-78137197D01*
X99601111Y-78126245D01*
X99600785Y-78124056D01*
X99601288Y-78118953D01*
X99601288Y-77547524D01*
X99598406Y-77518260D01*
X99596342Y-77513279D01*
X99595961Y-77507905D01*
X99585452Y-77480441D01*
X99514023Y-77337585D01*
X99506096Y-77324993D01*
X99504580Y-77321331D01*
X99501196Y-77317208D01*
X99498358Y-77312699D01*
X99495365Y-77310103D01*
X99485925Y-77298601D01*
X99467895Y-77280571D01*
X99731037Y-77280571D01*
X99737557Y-77309244D01*
X100237557Y-78809244D01*
X100249545Y-78836095D01*
X100256567Y-78844192D01*
X100261360Y-78853777D01*
X100275566Y-78866098D01*
X100287892Y-78880310D01*
X100297479Y-78885103D01*
X100305574Y-78892124D01*
X100323416Y-78898071D01*
X100340240Y-78906483D01*
X100350930Y-78907242D01*
X100361098Y-78910632D01*
X100379854Y-78909299D01*
X100398620Y-78910633D01*
X100408790Y-78907242D01*
X100419479Y-78906483D01*
X100436300Y-78898072D01*
X100454144Y-78892124D01*
X100462240Y-78885101D01*
X100471826Y-78880309D01*
X100484149Y-78866100D01*
X100498358Y-78853777D01*
X100503150Y-78844191D01*
X100510173Y-78836095D01*
X100522161Y-78809244D01*
X101022162Y-77309244D01*
X101028682Y-77280570D01*
X101024532Y-77222190D01*
X100998358Y-77169843D01*
X100954144Y-77131496D01*
X100898620Y-77112987D01*
X100840240Y-77117137D01*
X100787892Y-77143310D01*
X100749545Y-77187525D01*
X100737557Y-77214376D01*
X100379859Y-78287468D01*
X100022161Y-77214376D01*
X100010173Y-77187525D01*
X99971826Y-77143311D01*
X99919479Y-77117137D01*
X99861098Y-77112988D01*
X99805574Y-77131496D01*
X99761360Y-77169843D01*
X99735186Y-77222190D01*
X99731037Y-77280571D01*
X99467895Y-77280571D01*
X99414497Y-77227173D01*
X99402995Y-77217733D01*
X99400399Y-77214740D01*
X99395885Y-77211899D01*
X99391766Y-77208518D01*
X99388106Y-77207002D01*
X99375513Y-77199075D01*
X99232655Y-77127646D01*
X99205192Y-77117136D01*
X99199814Y-77116753D01*
X99194837Y-77114692D01*
X99165573Y-77111810D01*
X98879859Y-77111810D01*
X98850595Y-77114692D01*
X98845614Y-77116755D01*
X98840240Y-77117137D01*
X98812776Y-77127646D01*
X98669920Y-77199075D01*
X98657326Y-77207002D01*
X98653667Y-77208518D01*
X98649546Y-77211899D01*
X98645034Y-77214740D01*
X98642437Y-77217733D01*
X98630937Y-77227172D01*
X98559508Y-77298600D01*
X98550068Y-77310102D01*
X98547074Y-77312699D01*
X98544232Y-77317213D01*
X98540853Y-77321331D01*
X98539337Y-77324989D01*
X98531409Y-77337585D01*
X98459981Y-77480442D01*
X98449471Y-77507906D01*
X98449089Y-77513281D01*
X98447027Y-77518260D01*
X98444145Y-77547524D01*
X97509511Y-77547524D01*
X97504579Y-77535617D01*
X97463195Y-77494233D01*
X97409123Y-77471835D01*
X97350595Y-77471835D01*
X97296523Y-77494233D01*
X97255139Y-77535617D01*
X97232741Y-77589689D01*
X97229859Y-77618953D01*
X97229859Y-78040382D01*
X96808430Y-78040382D01*
X96779166Y-78043264D01*
X96725094Y-78065662D01*
X96683710Y-78107046D01*
X96661312Y-78161118D01*
X96494645Y-78161118D01*
X96494645Y-76945143D01*
X101195349Y-76945143D01*
X101195349Y-79078477D01*
G37*
D11*
X108753136Y-95600971D03*
D12*
X108753136Y-82900971D03*
D13*
X130306284Y-88153010D03*
D14*
X120146284Y-88153010D03*
D13*
X103356884Y-76240410D03*
D14*
X113516884Y-76240410D03*
D15*
X144815284Y-87289410D03*
D16*
X139735284Y-79669410D03*
D15*
X144815284Y-77129410D03*
D16*
X139735284Y-82209410D03*
D13*
X126623284Y-73929010D03*
D14*
X116463284Y-73929010D03*
D17*
X126775684Y-77256410D03*
X126775684Y-79796410D03*
X126775684Y-82336410D03*
X126775684Y-84876410D03*
X116615684Y-84876410D03*
X116615684Y-82336410D03*
X116615684Y-79796410D03*
G04 #@! TA.AperFunction,ComponentPad*
G36*
G01*
X115415684Y-77806410D02*
X115415684Y-76706410D01*
G75*
G02*
X115665684Y-76456410I250000J0D01*
G01*
X117565684Y-76456410D01*
G75*
G02*
X117815684Y-76706410I0J-250000D01*
G01*
X117815684Y-77806410D01*
G75*
G02*
X117565684Y-78056410I-250000J0D01*
G01*
X115665684Y-78056410D01*
G75*
G02*
X115415684Y-77806410I0J250000D01*
G01*
G37*
G04 #@! TD.AperFunction*
D18*
X99366476Y-85260586D03*
G04 #@! TA.AperFunction,ComponentPad*
G36*
G01*
X98416477Y-80560586D02*
X100316475Y-80560586D01*
G75*
G02*
X100566476Y-80810587I0J-250001D01*
G01*
X100566476Y-82710585D01*
G75*
G02*
X100316475Y-82960586I-250001J0D01*
G01*
X98416477Y-82960586D01*
G75*
G02*
X98166476Y-82710585I0J250001D01*
G01*
X98166476Y-80810587D01*
G75*
G02*
X98416477Y-80560586I250001J0D01*
G01*
G37*
G04 #@! TD.AperFunction*
D14*
X130382484Y-78958210D03*
X135382484Y-78958210D03*
X135407884Y-82234810D03*
X130407884Y-82234810D03*
X116617584Y-93171956D03*
X116617584Y-88171956D03*
X113415284Y-79771010D03*
X108415284Y-79771010D03*
D13*
X120146284Y-91429610D03*
D14*
X130306284Y-91429610D03*
D19*
X139192000Y-76962000D03*
X111506000Y-95758000D03*
X102202352Y-85152028D03*
G04 #@! TA.AperFunction,Conductor*
G36*
X151792539Y-64070185D02*
G01*
X151838294Y-64122989D01*
X151849500Y-64174500D01*
X151849500Y-100925500D01*
X151829815Y-100992539D01*
X151777011Y-101038294D01*
X151725500Y-101049500D01*
X95924500Y-101049500D01*
X95857461Y-101029815D01*
X95811706Y-100977011D01*
X95800500Y-100925500D01*
X95800500Y-95350971D01*
X107375281Y-95350971D01*
X108377858Y-95350971D01*
X108333803Y-95427277D01*
X108303136Y-95541727D01*
X108303136Y-95660215D01*
X108333803Y-95774665D01*
X108377858Y-95850971D01*
X107375281Y-95850971D01*
X107387609Y-95928806D01*
X107387609Y-95928809D01*
X107455703Y-96138381D01*
X107555749Y-96334731D01*
X107685278Y-96513012D01*
X107841094Y-96668828D01*
X108019375Y-96798357D01*
X108215725Y-96898403D01*
X108425299Y-96966497D01*
X108503135Y-96978825D01*
X108503136Y-96978825D01*
X108503136Y-95976248D01*
X108579442Y-96020304D01*
X108693892Y-96050971D01*
X108812380Y-96050971D01*
X108926830Y-96020304D01*
X109003136Y-95976248D01*
X109003136Y-96978825D01*
X109080970Y-96966497D01*
X109080973Y-96966497D01*
X109290546Y-96898403D01*
X109486896Y-96798357D01*
X109665177Y-96668828D01*
X109820993Y-96513012D01*
X109950522Y-96334731D01*
X110050568Y-96138381D01*
X110118662Y-95928809D01*
X110118662Y-95928806D01*
X110130991Y-95850971D01*
X109128414Y-95850971D01*
X109172469Y-95774665D01*
X109203136Y-95660215D01*
X109203136Y-95541727D01*
X109172469Y-95427277D01*
X109128414Y-95350971D01*
X110130991Y-95350971D01*
X110118662Y-95273135D01*
X110118662Y-95273132D01*
X110050568Y-95063560D01*
X109950522Y-94867210D01*
X109820993Y-94688929D01*
X109665177Y-94533113D01*
X109486896Y-94403584D01*
X109290546Y-94303538D01*
X109080972Y-94235444D01*
X109003136Y-94223115D01*
X109003136Y-95225693D01*
X108926830Y-95181638D01*
X108812380Y-95150971D01*
X108693892Y-95150971D01*
X108579442Y-95181638D01*
X108503136Y-95225693D01*
X108503136Y-94223115D01*
X108425300Y-94235444D01*
X108425297Y-94235444D01*
X108215725Y-94303538D01*
X108019375Y-94403584D01*
X107841094Y-94533113D01*
X107685278Y-94688929D01*
X107555749Y-94867210D01*
X107455703Y-95063560D01*
X107387609Y-95273132D01*
X107387609Y-95273135D01*
X107375281Y-95350971D01*
X95800500Y-95350971D01*
X95800500Y-93058980D01*
X115182084Y-93058980D01*
X115182084Y-93284931D01*
X115217431Y-93508104D01*
X115287252Y-93722994D01*
X115287253Y-93722997D01*
X115389834Y-93924322D01*
X115522646Y-94107122D01*
X115682418Y-94266894D01*
X115865218Y-94399706D01*
X115963962Y-94450018D01*
X116066542Y-94502286D01*
X116066545Y-94502287D01*
X116161419Y-94533113D01*
X116281437Y-94572109D01*
X116504608Y-94607456D01*
X116504609Y-94607456D01*
X116730559Y-94607456D01*
X116730560Y-94607456D01*
X116953731Y-94572109D01*
X117168625Y-94502286D01*
X117369950Y-94399706D01*
X117552750Y-94266894D01*
X117712522Y-94107122D01*
X117845334Y-93924322D01*
X117947914Y-93722997D01*
X118017737Y-93508103D01*
X118053084Y-93284932D01*
X118053084Y-93058980D01*
X118017737Y-92835809D01*
X117959756Y-92657360D01*
X117947915Y-92620917D01*
X117947914Y-92620914D01*
X117845333Y-92419589D01*
X117712522Y-92236790D01*
X117552750Y-92077018D01*
X117369950Y-91944206D01*
X117339402Y-91928641D01*
X117168625Y-91841625D01*
X117168622Y-91841624D01*
X116953732Y-91771803D01*
X116842145Y-91754129D01*
X116730560Y-91736456D01*
X116504608Y-91736456D01*
X116430217Y-91748238D01*
X116281435Y-91771803D01*
X116066545Y-91841624D01*
X116066542Y-91841625D01*
X115865217Y-91944206D01*
X115760923Y-92019980D01*
X115682418Y-92077018D01*
X115682416Y-92077020D01*
X115682415Y-92077020D01*
X115522648Y-92236787D01*
X115522648Y-92236788D01*
X115522646Y-92236790D01*
X115465608Y-92315295D01*
X115389834Y-92419589D01*
X115287253Y-92620914D01*
X115287252Y-92620917D01*
X115217431Y-92835807D01*
X115182084Y-93058980D01*
X95800500Y-93058980D01*
X95800500Y-91316634D01*
X118710784Y-91316634D01*
X118710784Y-91542585D01*
X118746131Y-91765758D01*
X118815952Y-91980648D01*
X118815953Y-91980651D01*
X118905060Y-92155532D01*
X118918534Y-92181976D01*
X119051346Y-92364776D01*
X119211118Y-92524548D01*
X119393918Y-92657360D01*
X119472894Y-92697600D01*
X119595242Y-92759940D01*
X119595245Y-92759941D01*
X119702690Y-92794851D01*
X119810137Y-92829763D01*
X120033308Y-92865110D01*
X120033309Y-92865110D01*
X120259259Y-92865110D01*
X120259260Y-92865110D01*
X120482431Y-92829763D01*
X120697325Y-92759940D01*
X120898650Y-92657360D01*
X121081450Y-92524548D01*
X121241222Y-92364776D01*
X121374034Y-92181976D01*
X121476614Y-91980651D01*
X121546437Y-91765757D01*
X121581784Y-91542586D01*
X121581784Y-91327292D01*
X129006284Y-91327292D01*
X129006284Y-91531927D01*
X129038293Y-91734027D01*
X129101528Y-91928641D01*
X129194425Y-92110960D01*
X129194431Y-92110969D01*
X129226807Y-92155531D01*
X129226808Y-92155532D01*
X129906284Y-91476056D01*
X129906284Y-91482271D01*
X129933543Y-91584004D01*
X129986204Y-91675216D01*
X130060678Y-91749690D01*
X130151890Y-91802351D01*
X130253623Y-91829610D01*
X130259837Y-91829610D01*
X129580360Y-92509084D01*
X129624934Y-92541469D01*
X129807252Y-92634365D01*
X130001866Y-92697600D01*
X130203967Y-92729610D01*
X130408601Y-92729610D01*
X130610701Y-92697600D01*
X130805315Y-92634365D01*
X130987633Y-92541469D01*
X131032205Y-92509084D01*
X130352731Y-91829610D01*
X130358945Y-91829610D01*
X130460678Y-91802351D01*
X130551890Y-91749690D01*
X130626364Y-91675216D01*
X130679025Y-91584004D01*
X130706284Y-91482271D01*
X130706284Y-91476057D01*
X131385758Y-92155531D01*
X131418143Y-92110959D01*
X131511039Y-91928641D01*
X131574274Y-91734027D01*
X131606284Y-91531927D01*
X131606284Y-91327292D01*
X131574274Y-91125192D01*
X131511039Y-90930578D01*
X131418143Y-90748260D01*
X131385758Y-90703687D01*
X131385758Y-90703686D01*
X130706284Y-91383161D01*
X130706284Y-91376949D01*
X130679025Y-91275216D01*
X130626364Y-91184004D01*
X130551890Y-91109530D01*
X130460678Y-91056869D01*
X130358945Y-91029610D01*
X130352730Y-91029610D01*
X131032206Y-90350134D01*
X131032205Y-90350133D01*
X130987643Y-90317757D01*
X130987634Y-90317751D01*
X130805315Y-90224854D01*
X130610701Y-90161619D01*
X130408601Y-90129610D01*
X130203967Y-90129610D01*
X130001866Y-90161619D01*
X129807252Y-90224854D01*
X129624928Y-90317753D01*
X129580361Y-90350133D01*
X129580361Y-90350134D01*
X130259838Y-91029610D01*
X130253623Y-91029610D01*
X130151890Y-91056869D01*
X130060678Y-91109530D01*
X129986204Y-91184004D01*
X129933543Y-91275216D01*
X129906284Y-91376949D01*
X129906284Y-91383163D01*
X129226808Y-90703687D01*
X129226807Y-90703687D01*
X129194427Y-90748254D01*
X129101528Y-90930578D01*
X129038293Y-91125192D01*
X129006284Y-91327292D01*
X121581784Y-91327292D01*
X121581784Y-91316634D01*
X121546437Y-91093463D01*
X121476614Y-90878569D01*
X121476614Y-90878568D01*
X121387507Y-90703687D01*
X121374034Y-90677244D01*
X121241222Y-90494444D01*
X121081450Y-90334672D01*
X120898650Y-90201860D01*
X120697325Y-90099279D01*
X120697322Y-90099278D01*
X120482432Y-90029457D01*
X120370845Y-90011783D01*
X120259260Y-89994110D01*
X120033308Y-89994110D01*
X119958917Y-90005892D01*
X119810135Y-90029457D01*
X119595245Y-90099278D01*
X119595242Y-90099279D01*
X119393917Y-90201860D01*
X119362269Y-90224854D01*
X119211118Y-90334672D01*
X119211116Y-90334674D01*
X119211115Y-90334674D01*
X119051348Y-90494441D01*
X119051348Y-90494442D01*
X119051346Y-90494444D01*
X118994308Y-90572949D01*
X118918534Y-90677243D01*
X118815953Y-90878568D01*
X118815952Y-90878571D01*
X118746131Y-91093461D01*
X118710784Y-91316634D01*
X95800500Y-91316634D01*
X95800500Y-90012661D01*
X96830279Y-90012661D01*
X101145687Y-90012661D01*
X101145687Y-88197611D01*
X96830279Y-88197611D01*
X96830279Y-90012661D01*
X95800500Y-90012661D01*
X95800500Y-88069638D01*
X115317584Y-88069638D01*
X115317584Y-88274273D01*
X115349593Y-88476373D01*
X115412828Y-88670987D01*
X115505725Y-88853306D01*
X115505731Y-88853315D01*
X115538107Y-88897877D01*
X115538108Y-88897878D01*
X116217584Y-88218402D01*
X116217584Y-88224617D01*
X116244843Y-88326350D01*
X116297504Y-88417562D01*
X116371978Y-88492036D01*
X116463190Y-88544697D01*
X116564923Y-88571956D01*
X116571137Y-88571956D01*
X115891660Y-89251430D01*
X115936234Y-89283815D01*
X116118552Y-89376711D01*
X116313166Y-89439946D01*
X116515267Y-89471956D01*
X116719901Y-89471956D01*
X116922001Y-89439946D01*
X117116615Y-89376711D01*
X117298933Y-89283815D01*
X117343505Y-89251430D01*
X116664031Y-88571956D01*
X116670245Y-88571956D01*
X116771978Y-88544697D01*
X116863190Y-88492036D01*
X116937664Y-88417562D01*
X116990325Y-88326350D01*
X117017584Y-88224617D01*
X117017584Y-88218403D01*
X117697058Y-88897877D01*
X117729443Y-88853305D01*
X117822339Y-88670987D01*
X117885574Y-88476373D01*
X117917584Y-88274273D01*
X117917584Y-88069643D01*
X117915195Y-88054559D01*
X117915195Y-88054556D01*
X117912895Y-88040034D01*
X118710784Y-88040034D01*
X118710784Y-88265985D01*
X118746131Y-88489158D01*
X118815952Y-88704048D01*
X118815953Y-88704051D01*
X118914713Y-88897877D01*
X118918534Y-88905376D01*
X119051346Y-89088176D01*
X119211118Y-89247948D01*
X119393918Y-89380760D01*
X119479902Y-89424571D01*
X119595242Y-89483340D01*
X119595245Y-89483341D01*
X119649318Y-89500910D01*
X119810137Y-89553163D01*
X120033308Y-89588510D01*
X120033309Y-89588510D01*
X120259259Y-89588510D01*
X120259260Y-89588510D01*
X120482431Y-89553163D01*
X120697325Y-89483340D01*
X120898650Y-89380760D01*
X121081450Y-89247948D01*
X121241222Y-89088176D01*
X121374034Y-88905376D01*
X121476614Y-88704051D01*
X121546437Y-88489157D01*
X121581784Y-88265986D01*
X121581784Y-88040034D01*
X128870784Y-88040034D01*
X128870784Y-88265985D01*
X128906131Y-88489158D01*
X128975952Y-88704048D01*
X128975953Y-88704051D01*
X129074713Y-88897877D01*
X129078534Y-88905376D01*
X129211346Y-89088176D01*
X129371118Y-89247948D01*
X129553918Y-89380760D01*
X129639902Y-89424571D01*
X129755242Y-89483340D01*
X129755245Y-89483341D01*
X129809318Y-89500910D01*
X129970137Y-89553163D01*
X130193308Y-89588510D01*
X130193309Y-89588510D01*
X130419259Y-89588510D01*
X130419260Y-89588510D01*
X130642431Y-89553163D01*
X130857325Y-89483340D01*
X131058650Y-89380760D01*
X131241450Y-89247948D01*
X131401222Y-89088176D01*
X131534034Y-88905376D01*
X131636614Y-88704051D01*
X131706437Y-88489157D01*
X131741784Y-88265986D01*
X131741784Y-88040034D01*
X131706437Y-87816863D01*
X131636614Y-87601969D01*
X131636614Y-87601968D01*
X131613287Y-87556187D01*
X131579869Y-87490600D01*
X131534034Y-87400644D01*
X131401222Y-87217844D01*
X131241450Y-87058072D01*
X131215764Y-87039410D01*
X140828781Y-87039410D01*
X143840322Y-87039410D01*
X143810284Y-87190426D01*
X143810284Y-87388394D01*
X143840322Y-87539410D01*
X140828782Y-87539410D01*
X140853780Y-87729294D01*
X140853783Y-87729307D01*
X140930119Y-88014200D01*
X140930122Y-88014210D01*
X141042988Y-88286691D01*
X141042993Y-88286702D01*
X141190458Y-88542117D01*
X141190469Y-88542133D01*
X141370013Y-88776119D01*
X141370019Y-88776126D01*
X141578567Y-88984674D01*
X141578574Y-88984680D01*
X141812560Y-89164224D01*
X141812576Y-89164235D01*
X142067991Y-89311700D01*
X142068002Y-89311705D01*
X142340483Y-89424571D01*
X142340493Y-89424574D01*
X142625386Y-89500910D01*
X142625399Y-89500913D01*
X142917800Y-89539408D01*
X142917818Y-89539410D01*
X144565284Y-89539410D01*
X144565284Y-88264371D01*
X144716300Y-88294410D01*
X144914268Y-88294410D01*
X145065284Y-88264371D01*
X145065284Y-89539410D01*
X146712750Y-89539410D01*
X146712767Y-89539408D01*
X147005168Y-89500913D01*
X147005181Y-89500910D01*
X147290074Y-89424574D01*
X147290084Y-89424571D01*
X147562565Y-89311705D01*
X147562576Y-89311700D01*
X147817991Y-89164235D01*
X147818007Y-89164224D01*
X148051993Y-88984680D01*
X148052000Y-88984674D01*
X148260548Y-88776126D01*
X148260554Y-88776119D01*
X148440098Y-88542133D01*
X148440109Y-88542117D01*
X148587574Y-88286702D01*
X148587579Y-88286691D01*
X148700445Y-88014210D01*
X148700448Y-88014200D01*
X148776784Y-87729307D01*
X148776787Y-87729294D01*
X148801786Y-87539410D01*
X145790246Y-87539410D01*
X145820284Y-87388394D01*
X145820284Y-87190426D01*
X145790246Y-87039410D01*
X148801786Y-87039410D01*
X148776787Y-86849525D01*
X148776784Y-86849512D01*
X148700448Y-86564619D01*
X148700445Y-86564609D01*
X148587579Y-86292128D01*
X148587574Y-86292117D01*
X148440109Y-86036702D01*
X148440098Y-86036686D01*
X148260554Y-85802700D01*
X148260548Y-85802693D01*
X148052000Y-85594145D01*
X148051993Y-85594139D01*
X147818007Y-85414595D01*
X147817991Y-85414584D01*
X147562576Y-85267119D01*
X147562565Y-85267114D01*
X147290084Y-85154248D01*
X147290074Y-85154245D01*
X147005181Y-85077909D01*
X147005168Y-85077906D01*
X146712767Y-85039411D01*
X146712750Y-85039410D01*
X145065284Y-85039410D01*
X145065284Y-86314448D01*
X144914268Y-86284410D01*
X144716300Y-86284410D01*
X144565284Y-86314448D01*
X144565284Y-85039410D01*
X142917818Y-85039410D01*
X142917800Y-85039411D01*
X142625399Y-85077906D01*
X142625386Y-85077909D01*
X142340493Y-85154245D01*
X142340483Y-85154248D01*
X142068002Y-85267114D01*
X142067991Y-85267119D01*
X141812576Y-85414584D01*
X141812560Y-85414595D01*
X141578574Y-85594139D01*
X141578567Y-85594145D01*
X141370019Y-85802693D01*
X141370013Y-85802700D01*
X141190469Y-86036686D01*
X141190458Y-86036702D01*
X141042993Y-86292117D01*
X141042988Y-86292128D01*
X140930122Y-86564609D01*
X140930119Y-86564619D01*
X140853783Y-86849512D01*
X140853780Y-86849525D01*
X140828781Y-87039410D01*
X131215764Y-87039410D01*
X131058650Y-86925260D01*
X130857325Y-86822679D01*
X130857322Y-86822678D01*
X130642432Y-86752857D01*
X130530845Y-86735183D01*
X130419260Y-86717510D01*
X130193308Y-86717510D01*
X130118917Y-86729292D01*
X129970135Y-86752857D01*
X129755245Y-86822678D01*
X129755242Y-86822679D01*
X129553917Y-86925260D01*
X129456192Y-86996262D01*
X129371118Y-87058072D01*
X129371116Y-87058074D01*
X129371115Y-87058074D01*
X129211348Y-87217841D01*
X129211348Y-87217842D01*
X129211346Y-87217844D01*
X129154308Y-87296349D01*
X129078534Y-87400643D01*
X128975953Y-87601968D01*
X128975952Y-87601971D01*
X128906131Y-87816861D01*
X128870784Y-88040034D01*
X121581784Y-88040034D01*
X121546437Y-87816863D01*
X121476614Y-87601969D01*
X121476614Y-87601968D01*
X121374033Y-87400643D01*
X121241222Y-87217844D01*
X121081450Y-87058072D01*
X120898650Y-86925260D01*
X120697325Y-86822679D01*
X120697322Y-86822678D01*
X120482432Y-86752857D01*
X120370845Y-86735183D01*
X120259260Y-86717510D01*
X120033308Y-86717510D01*
X119958917Y-86729292D01*
X119810135Y-86752857D01*
X119595245Y-86822678D01*
X119595242Y-86822679D01*
X119393917Y-86925260D01*
X119296192Y-86996262D01*
X119211118Y-87058072D01*
X119211116Y-87058074D01*
X119211115Y-87058074D01*
X119051348Y-87217841D01*
X119051348Y-87217842D01*
X119051346Y-87217844D01*
X118994308Y-87296349D01*
X118918534Y-87400643D01*
X118815953Y-87601968D01*
X118815952Y-87601971D01*
X118746131Y-87816861D01*
X118710784Y-88040034D01*
X117912895Y-88040034D01*
X117885574Y-87867538D01*
X117822339Y-87672924D01*
X117729443Y-87490606D01*
X117697058Y-87446033D01*
X117697058Y-87446032D01*
X117017584Y-88125507D01*
X117017584Y-88119295D01*
X116990325Y-88017562D01*
X116937664Y-87926350D01*
X116863190Y-87851876D01*
X116771978Y-87799215D01*
X116670245Y-87771956D01*
X116664030Y-87771956D01*
X117343506Y-87092480D01*
X117343505Y-87092479D01*
X117298943Y-87060103D01*
X117298934Y-87060097D01*
X117116615Y-86967200D01*
X116922001Y-86903965D01*
X116719901Y-86871956D01*
X116515267Y-86871956D01*
X116313166Y-86903965D01*
X116118552Y-86967200D01*
X115936228Y-87060099D01*
X115891661Y-87092479D01*
X115891661Y-87092480D01*
X116571138Y-87771956D01*
X116564923Y-87771956D01*
X116463190Y-87799215D01*
X116371978Y-87851876D01*
X116297504Y-87926350D01*
X116244843Y-88017562D01*
X116217584Y-88119295D01*
X116217584Y-88125509D01*
X115538108Y-87446033D01*
X115538107Y-87446033D01*
X115505727Y-87490600D01*
X115412828Y-87672924D01*
X115349593Y-87867538D01*
X115317584Y-88069638D01*
X95800500Y-88069638D01*
X95800500Y-80748600D01*
X97530976Y-80748600D01*
X97530976Y-82772571D01*
X97537059Y-82849867D01*
X97537059Y-82849870D01*
X97537060Y-82849871D01*
X97585237Y-83029668D01*
X97606971Y-83072325D01*
X97669739Y-83195517D01*
X97718164Y-83255316D01*
X97786884Y-83340178D01*
X97891677Y-83425038D01*
X97931544Y-83457322D01*
X98013671Y-83499166D01*
X98097394Y-83541825D01*
X98277191Y-83590002D01*
X98354496Y-83596086D01*
X98354504Y-83596086D01*
X98386699Y-83596086D01*
X98453738Y-83615771D01*
X98499493Y-83668575D01*
X98509437Y-83737733D01*
X98480412Y-83801289D01*
X98448698Y-83827474D01*
X98419982Y-83844052D01*
X98354071Y-83894628D01*
X99155417Y-84695973D01*
X99134885Y-84701475D01*
X98998068Y-84780467D01*
X98886357Y-84892178D01*
X98807365Y-85028995D01*
X98801863Y-85049526D01*
X98000518Y-84248181D01*
X97949938Y-84314097D01*
X97838530Y-84507065D01*
X97838521Y-84507083D01*
X97753239Y-84712967D01*
X97695564Y-84928218D01*
X97695561Y-84928231D01*
X97666476Y-85149161D01*
X97666476Y-85372010D01*
X97695561Y-85592940D01*
X97695564Y-85592953D01*
X97753239Y-85808204D01*
X97838521Y-86014088D01*
X97838530Y-86014106D01*
X97949940Y-86207077D01*
X97949949Y-86207090D01*
X98000516Y-86272989D01*
X98000519Y-86272989D01*
X98801863Y-85471645D01*
X98807365Y-85492177D01*
X98886357Y-85628994D01*
X98998068Y-85740705D01*
X99134885Y-85819697D01*
X99155416Y-85825198D01*
X98354071Y-86626541D01*
X98354071Y-86626542D01*
X98419983Y-86677119D01*
X98612961Y-86788535D01*
X98612973Y-86788540D01*
X98818857Y-86873822D01*
X99034108Y-86931497D01*
X99034121Y-86931500D01*
X99255051Y-86960586D01*
X99477901Y-86960586D01*
X99698830Y-86931500D01*
X99698843Y-86931497D01*
X99914094Y-86873822D01*
X100119978Y-86788540D01*
X100119990Y-86788535D01*
X100312974Y-86677116D01*
X100378879Y-86626543D01*
X100378880Y-86626542D01*
X99577535Y-85825198D01*
X99598067Y-85819697D01*
X99734884Y-85740705D01*
X99846595Y-85628994D01*
X99925587Y-85492177D01*
X99931088Y-85471645D01*
X100732432Y-86272990D01*
X100732433Y-86272989D01*
X100783006Y-86207084D01*
X100894425Y-86014100D01*
X100894430Y-86014088D01*
X100979712Y-85808204D01*
X101037387Y-85592953D01*
X101037390Y-85592940D01*
X101066476Y-85372010D01*
X101066476Y-85149162D01*
X101060732Y-85105533D01*
X101060732Y-85105532D01*
X101037390Y-84928231D01*
X101037387Y-84928218D01*
X100979712Y-84712967D01*
X100894430Y-84507083D01*
X100894425Y-84507071D01*
X100783009Y-84314093D01*
X100732432Y-84248181D01*
X100732431Y-84248181D01*
X99931088Y-85049525D01*
X99925587Y-85028995D01*
X99846595Y-84892178D01*
X99734884Y-84780467D01*
X99598067Y-84701475D01*
X99577534Y-84695973D01*
X100378879Y-83894629D01*
X100378879Y-83894626D01*
X100312980Y-83844059D01*
X100312978Y-83844057D01*
X100284254Y-83827474D01*
X100236038Y-83776907D01*
X100222814Y-83708300D01*
X100248782Y-83643435D01*
X100305696Y-83602906D01*
X100346253Y-83596086D01*
X100378448Y-83596086D01*
X100378456Y-83596086D01*
X100455761Y-83590002D01*
X100635558Y-83541825D01*
X100761937Y-83477432D01*
X100801407Y-83457322D01*
X100801408Y-83457320D01*
X100801410Y-83457320D01*
X100946068Y-83340178D01*
X101063210Y-83195520D01*
X101147715Y-83029668D01*
X101195892Y-82849871D01*
X101201976Y-82772566D01*
X101201976Y-80748606D01*
X101195892Y-80671301D01*
X101147715Y-80491504D01*
X101082579Y-80363666D01*
X101063212Y-80325654D01*
X100982675Y-80226200D01*
X100946068Y-80180994D01*
X100854887Y-80107157D01*
X100801407Y-80063849D01*
X100678215Y-80001081D01*
X100635558Y-79979347D01*
X100455761Y-79931170D01*
X100455760Y-79931169D01*
X100455757Y-79931169D01*
X100378461Y-79925086D01*
X100378456Y-79925086D01*
X98354496Y-79925086D01*
X98354490Y-79925086D01*
X98277194Y-79931169D01*
X98097394Y-79979347D01*
X97931544Y-80063849D01*
X97786884Y-80180994D01*
X97669739Y-80325654D01*
X97585237Y-80491504D01*
X97537059Y-80671304D01*
X97530976Y-80748600D01*
X95800500Y-80748600D01*
X95800500Y-79658034D01*
X106979784Y-79658034D01*
X106979784Y-79883986D01*
X106981272Y-79893378D01*
X107015131Y-80107158D01*
X107084952Y-80322048D01*
X107084953Y-80322051D01*
X107171294Y-80491504D01*
X107187534Y-80523376D01*
X107320346Y-80706176D01*
X107480118Y-80865948D01*
X107662918Y-80998760D01*
X107761662Y-81049072D01*
X107864242Y-81101340D01*
X107864248Y-81101342D01*
X107932568Y-81123540D01*
X107990244Y-81162976D01*
X108017443Y-81227335D01*
X108005529Y-81296181D01*
X107958285Y-81347658D01*
X107894252Y-81365471D01*
X107788968Y-81365471D01*
X107788942Y-81365472D01*
X107752931Y-81368306D01*
X107598747Y-81413100D01*
X107598742Y-81413102D01*
X107460540Y-81494834D01*
X107460532Y-81494840D01*
X107347005Y-81608367D01*
X107346999Y-81608375D01*
X107265267Y-81746577D01*
X107265265Y-81746582D01*
X107220471Y-81900762D01*
X107220470Y-81900768D01*
X107217636Y-81936782D01*
X107217636Y-83865139D01*
X107217637Y-83865164D01*
X107220471Y-83901175D01*
X107265265Y-84055359D01*
X107265267Y-84055364D01*
X107346999Y-84193566D01*
X107347005Y-84193574D01*
X107460532Y-84307101D01*
X107460536Y-84307104D01*
X107460538Y-84307106D01*
X107598743Y-84388840D01*
X107639404Y-84400653D01*
X107752927Y-84433635D01*
X107752930Y-84433635D01*
X107752932Y-84433636D01*
X107788955Y-84436471D01*
X109717316Y-84436470D01*
X109753340Y-84433636D01*
X109907529Y-84388840D01*
X110045734Y-84307106D01*
X110159271Y-84193569D01*
X110241005Y-84055364D01*
X110285801Y-83901175D01*
X110288636Y-83865152D01*
X110288635Y-81936791D01*
X110285801Y-81900767D01*
X110241005Y-81746578D01*
X110159271Y-81608373D01*
X110159269Y-81608371D01*
X110159266Y-81608367D01*
X110045739Y-81494840D01*
X110045731Y-81494834D01*
X109907529Y-81413102D01*
X109907524Y-81413100D01*
X109753344Y-81368306D01*
X109753338Y-81368305D01*
X109717324Y-81365471D01*
X108936317Y-81365471D01*
X108869278Y-81345786D01*
X108823523Y-81292982D01*
X108813579Y-81223824D01*
X108842604Y-81160268D01*
X108898000Y-81123540D01*
X108966319Y-81101342D01*
X108966325Y-81101340D01*
X108986548Y-81091036D01*
X109167650Y-80998760D01*
X109350450Y-80865948D01*
X109510222Y-80706176D01*
X109643034Y-80523376D01*
X109745614Y-80322051D01*
X109815437Y-80107157D01*
X109850784Y-79883986D01*
X109850784Y-79658034D01*
X111979784Y-79658034D01*
X111979784Y-79883986D01*
X111981272Y-79893378D01*
X112015131Y-80107158D01*
X112084952Y-80322048D01*
X112084953Y-80322051D01*
X112171294Y-80491504D01*
X112187534Y-80523376D01*
X112320346Y-80706176D01*
X112480118Y-80865948D01*
X112662918Y-80998760D01*
X112761662Y-81049072D01*
X112864242Y-81101340D01*
X112864245Y-81101341D01*
X112971690Y-81136251D01*
X113079137Y-81171163D01*
X113302308Y-81206510D01*
X113302309Y-81206510D01*
X113528259Y-81206510D01*
X113528260Y-81206510D01*
X113751431Y-81171163D01*
X113966325Y-81101340D01*
X114167650Y-80998760D01*
X114350450Y-80865948D01*
X114510222Y-80706176D01*
X114643034Y-80523376D01*
X114698528Y-80414461D01*
X114746502Y-80363666D01*
X114814323Y-80346871D01*
X114880458Y-80369408D01*
X114919497Y-80414461D01*
X114987934Y-80548776D01*
X115120746Y-80731576D01*
X115280518Y-80891348D01*
X115355173Y-80945588D01*
X115383394Y-80966092D01*
X115426059Y-81021422D01*
X115432038Y-81091036D01*
X115399432Y-81152831D01*
X115383394Y-81166728D01*
X115280515Y-81241474D01*
X115120748Y-81401241D01*
X115120748Y-81401242D01*
X115120746Y-81401244D01*
X115112131Y-81413102D01*
X114987934Y-81584043D01*
X114885353Y-81785368D01*
X114885352Y-81785371D01*
X114815531Y-82000261D01*
X114780184Y-82223434D01*
X114780184Y-82449385D01*
X114815531Y-82672558D01*
X114885352Y-82887448D01*
X114885353Y-82887451D01*
X114957817Y-83029668D01*
X114987934Y-83088776D01*
X115120746Y-83271576D01*
X115280518Y-83431348D01*
X115402523Y-83519990D01*
X115463319Y-83564161D01*
X115486883Y-83576167D01*
X115537679Y-83624141D01*
X115554475Y-83691961D01*
X115531938Y-83758097D01*
X115503475Y-83786969D01*
X115368797Y-83884820D01*
X115368788Y-83884827D01*
X115224101Y-84029514D01*
X115224101Y-84029515D01*
X115103824Y-84195060D01*
X115010928Y-84377380D01*
X114947693Y-84571996D01*
X114939075Y-84626410D01*
X116299998Y-84626410D01*
X116295604Y-84630804D01*
X116242943Y-84722016D01*
X116215684Y-84823749D01*
X116215684Y-84929071D01*
X116242943Y-85030804D01*
X116295604Y-85122016D01*
X116299998Y-85126410D01*
X114939075Y-85126410D01*
X114947693Y-85180823D01*
X115010928Y-85375439D01*
X115103824Y-85557759D01*
X115224101Y-85723304D01*
X115224101Y-85723305D01*
X115368788Y-85867992D01*
X115534334Y-85988269D01*
X115716652Y-86081165D01*
X115911266Y-86144400D01*
X116113367Y-86176410D01*
X116365684Y-86176410D01*
X116365684Y-85192096D01*
X116370078Y-85196490D01*
X116461290Y-85249151D01*
X116563023Y-85276410D01*
X116668345Y-85276410D01*
X116770078Y-85249151D01*
X116861290Y-85196490D01*
X116865684Y-85192096D01*
X116865684Y-86176410D01*
X117118001Y-86176410D01*
X117320101Y-86144400D01*
X117514715Y-86081165D01*
X117697033Y-85988269D01*
X117862578Y-85867992D01*
X117862579Y-85867992D01*
X118007266Y-85723305D01*
X118007266Y-85723304D01*
X118127543Y-85557759D01*
X118220439Y-85375439D01*
X118283674Y-85180823D01*
X118292293Y-85126410D01*
X116931370Y-85126410D01*
X116935764Y-85122016D01*
X116988425Y-85030804D01*
X117015684Y-84929071D01*
X117015684Y-84823749D01*
X116988425Y-84722016D01*
X116935764Y-84630804D01*
X116931370Y-84626410D01*
X118292293Y-84626410D01*
X118283674Y-84571996D01*
X118220439Y-84377380D01*
X118127543Y-84195060D01*
X118007266Y-84029515D01*
X118007266Y-84029514D01*
X117862578Y-83884826D01*
X117727892Y-83786970D01*
X117685227Y-83731639D01*
X117679248Y-83662026D01*
X117711854Y-83600231D01*
X117744484Y-83576167D01*
X117768050Y-83564160D01*
X117950850Y-83431348D01*
X118110622Y-83271576D01*
X118243434Y-83088776D01*
X118346014Y-82887451D01*
X118415837Y-82672557D01*
X118451184Y-82449386D01*
X118451184Y-82223434D01*
X118415837Y-82000263D01*
X118346014Y-81785369D01*
X118346014Y-81785368D01*
X118243433Y-81584043D01*
X118178623Y-81494840D01*
X118110622Y-81401244D01*
X117950850Y-81241472D01*
X117847974Y-81166728D01*
X117805308Y-81111398D01*
X117799329Y-81041785D01*
X117831935Y-80979990D01*
X117847974Y-80966092D01*
X117876195Y-80945588D01*
X117950850Y-80891348D01*
X118110622Y-80731576D01*
X118243434Y-80548776D01*
X118346014Y-80347451D01*
X118415837Y-80132557D01*
X118451184Y-79909386D01*
X118451184Y-79683434D01*
X118415837Y-79460263D01*
X118367587Y-79311763D01*
X118346015Y-79245371D01*
X118346014Y-79245368D01*
X118278367Y-79112604D01*
X118243434Y-79044044D01*
X118110622Y-78861244D01*
X118006947Y-78757569D01*
X117973462Y-78696246D01*
X117978446Y-78626554D01*
X118020318Y-78570621D01*
X118038330Y-78559405D01*
X118050619Y-78553144D01*
X118195276Y-78436002D01*
X118312418Y-78291345D01*
X118319799Y-78276860D01*
X118342510Y-78232286D01*
X118396923Y-78125493D01*
X118445100Y-77945696D01*
X118451184Y-77868391D01*
X118451183Y-77143434D01*
X124940184Y-77143434D01*
X124940184Y-77369385D01*
X124975531Y-77592558D01*
X125045352Y-77807448D01*
X125045353Y-77807451D01*
X125081674Y-77878734D01*
X125147934Y-78008776D01*
X125280746Y-78191576D01*
X125440518Y-78351348D01*
X125482868Y-78382117D01*
X125543394Y-78426092D01*
X125586059Y-78481422D01*
X125592038Y-78551036D01*
X125559432Y-78612831D01*
X125543394Y-78626728D01*
X125440518Y-78701472D01*
X125440516Y-78701474D01*
X125440515Y-78701474D01*
X125280748Y-78861241D01*
X125280748Y-78861242D01*
X125280746Y-78861244D01*
X125239122Y-78918535D01*
X125147934Y-79044043D01*
X125045353Y-79245368D01*
X125045352Y-79245371D01*
X124975531Y-79460261D01*
X124940184Y-79683434D01*
X124940184Y-79909385D01*
X124975531Y-80132558D01*
X125045352Y-80347448D01*
X125045353Y-80347451D01*
X125131389Y-80516304D01*
X125147934Y-80548776D01*
X125280746Y-80731576D01*
X125440518Y-80891348D01*
X125515173Y-80945588D01*
X125543394Y-80966092D01*
X125586059Y-81021422D01*
X125592038Y-81091036D01*
X125559432Y-81152831D01*
X125543394Y-81166728D01*
X125440515Y-81241474D01*
X125280748Y-81401241D01*
X125280748Y-81401242D01*
X125280746Y-81401244D01*
X125272131Y-81413102D01*
X125147934Y-81584043D01*
X125045353Y-81785368D01*
X125045352Y-81785371D01*
X124975531Y-82000261D01*
X124940184Y-82223434D01*
X124940184Y-82449385D01*
X124975531Y-82672558D01*
X125045352Y-82887448D01*
X125045353Y-82887451D01*
X125117817Y-83029668D01*
X125147934Y-83088776D01*
X125280746Y-83271576D01*
X125440518Y-83431348D01*
X125483478Y-83462560D01*
X125543394Y-83506092D01*
X125586059Y-83561422D01*
X125592038Y-83631036D01*
X125559432Y-83692831D01*
X125543394Y-83706728D01*
X125516219Y-83726471D01*
X125440518Y-83781472D01*
X125440516Y-83781474D01*
X125440515Y-83781474D01*
X125280748Y-83941241D01*
X125280748Y-83941242D01*
X125280746Y-83941244D01*
X125223708Y-84019749D01*
X125147934Y-84124043D01*
X125045353Y-84325368D01*
X125045352Y-84325371D01*
X124975531Y-84540261D01*
X124949997Y-84701475D01*
X124940184Y-84763434D01*
X124940184Y-84989386D01*
X124946744Y-85030804D01*
X124975531Y-85212558D01*
X125045352Y-85427448D01*
X125045353Y-85427451D01*
X125140476Y-85614139D01*
X125147934Y-85628776D01*
X125280746Y-85811576D01*
X125440518Y-85971348D01*
X125623318Y-86104160D01*
X125702294Y-86144400D01*
X125824642Y-86206740D01*
X125824645Y-86206741D01*
X125932090Y-86241651D01*
X126039537Y-86276563D01*
X126262708Y-86311910D01*
X126262709Y-86311910D01*
X127288659Y-86311910D01*
X127288660Y-86311910D01*
X127511831Y-86276563D01*
X127726725Y-86206740D01*
X127928050Y-86104160D01*
X128110850Y-85971348D01*
X128270622Y-85811576D01*
X128403434Y-85628776D01*
X128506014Y-85427451D01*
X128575837Y-85212557D01*
X128611184Y-84989386D01*
X128611184Y-84763434D01*
X128575837Y-84540263D01*
X128526637Y-84388839D01*
X128506015Y-84325371D01*
X128506014Y-84325368D01*
X128403433Y-84124043D01*
X128270622Y-83941244D01*
X128110850Y-83781472D01*
X128078677Y-83758097D01*
X128007974Y-83706728D01*
X127965308Y-83651398D01*
X127959329Y-83581785D01*
X127991935Y-83519990D01*
X128007974Y-83506092D01*
X128067890Y-83462560D01*
X128110850Y-83431348D01*
X128270622Y-83271576D01*
X128403434Y-83088776D01*
X128506014Y-82887451D01*
X128575837Y-82672557D01*
X128611184Y-82449386D01*
X128611184Y-82223434D01*
X128595092Y-82121834D01*
X128972384Y-82121834D01*
X128972384Y-82347785D01*
X129007731Y-82570958D01*
X129077552Y-82785848D01*
X129077553Y-82785851D01*
X129167192Y-82961776D01*
X129180134Y-82987176D01*
X129312946Y-83169976D01*
X129472718Y-83329748D01*
X129655518Y-83462560D01*
X129740955Y-83506092D01*
X129856842Y-83565140D01*
X129856845Y-83565141D01*
X129952082Y-83596085D01*
X130071737Y-83634963D01*
X130294908Y-83670310D01*
X130294909Y-83670310D01*
X130520859Y-83670310D01*
X130520860Y-83670310D01*
X130744031Y-83634963D01*
X130958925Y-83565140D01*
X131160250Y-83462560D01*
X131343050Y-83329748D01*
X131502822Y-83169976D01*
X131635634Y-82987176D01*
X131738214Y-82785851D01*
X131808037Y-82570957D01*
X131843384Y-82347786D01*
X131843384Y-82121834D01*
X133972384Y-82121834D01*
X133972384Y-82347785D01*
X134007731Y-82570958D01*
X134077552Y-82785848D01*
X134077553Y-82785851D01*
X134167192Y-82961776D01*
X134180134Y-82987176D01*
X134312946Y-83169976D01*
X134472718Y-83329748D01*
X134655518Y-83462560D01*
X134740955Y-83506092D01*
X134856842Y-83565140D01*
X134856845Y-83565141D01*
X134952082Y-83596085D01*
X135071737Y-83634963D01*
X135294908Y-83670310D01*
X135294909Y-83670310D01*
X135520859Y-83670310D01*
X135520860Y-83670310D01*
X135744031Y-83634963D01*
X135958925Y-83565140D01*
X136160250Y-83462560D01*
X136343050Y-83329748D01*
X136502822Y-83169976D01*
X136635634Y-82987176D01*
X136738214Y-82785851D01*
X136808037Y-82570957D01*
X136843384Y-82347786D01*
X136843384Y-82121834D01*
X136839361Y-82096434D01*
X137849784Y-82096434D01*
X137849784Y-82322385D01*
X137885131Y-82545558D01*
X137954952Y-82760448D01*
X137954953Y-82760451D01*
X138057534Y-82961776D01*
X138190346Y-83144576D01*
X138350118Y-83304348D01*
X138532918Y-83437160D01*
X138631662Y-83487472D01*
X138734242Y-83539740D01*
X138734245Y-83539741D01*
X138841690Y-83574651D01*
X138949137Y-83609563D01*
X139172308Y-83644910D01*
X139172309Y-83644910D01*
X140298259Y-83644910D01*
X140298260Y-83644910D01*
X140521431Y-83609563D01*
X140736325Y-83539740D01*
X140937650Y-83437160D01*
X141120450Y-83304348D01*
X141280222Y-83144576D01*
X141413034Y-82961776D01*
X141515614Y-82760451D01*
X141585437Y-82545557D01*
X141620784Y-82322386D01*
X141620784Y-82096434D01*
X141585437Y-81873263D01*
X141515614Y-81658369D01*
X141515614Y-81658368D01*
X141413033Y-81457043D01*
X141381108Y-81413102D01*
X141280222Y-81274244D01*
X141120450Y-81114472D01*
X140937650Y-80981660D01*
X140914083Y-80969652D01*
X140863287Y-80921677D01*
X140846492Y-80853856D01*
X140869030Y-80787721D01*
X140897492Y-80758849D01*
X141032179Y-80660992D01*
X141176866Y-80516305D01*
X141176866Y-80516304D01*
X141297143Y-80350759D01*
X141390039Y-80168439D01*
X141453274Y-79973823D01*
X141461893Y-79919410D01*
X140104788Y-79919410D01*
X140149958Y-79841174D01*
X140180284Y-79727995D01*
X140180284Y-79610825D01*
X140149958Y-79497646D01*
X140104788Y-79419410D01*
X141461893Y-79419410D01*
X141453274Y-79364996D01*
X141390039Y-79170380D01*
X141297143Y-78988060D01*
X141176866Y-78822515D01*
X141176866Y-78822514D01*
X141032179Y-78677827D01*
X140866633Y-78557550D01*
X140684315Y-78464654D01*
X140489701Y-78401419D01*
X140287601Y-78369410D01*
X139985284Y-78369410D01*
X139985284Y-79299905D01*
X139907048Y-79254736D01*
X139793869Y-79224410D01*
X139676699Y-79224410D01*
X139563520Y-79254736D01*
X139485284Y-79299905D01*
X139485284Y-78369410D01*
X139182967Y-78369410D01*
X138980866Y-78401419D01*
X138786252Y-78464654D01*
X138603934Y-78557550D01*
X138438389Y-78677827D01*
X138438388Y-78677827D01*
X138293701Y-78822514D01*
X138293701Y-78822515D01*
X138173424Y-78988060D01*
X138080528Y-79170380D01*
X138017293Y-79364996D01*
X138008675Y-79419410D01*
X139365780Y-79419410D01*
X139320610Y-79497646D01*
X139290284Y-79610825D01*
X139290284Y-79727995D01*
X139320610Y-79841174D01*
X139365780Y-79919410D01*
X138008675Y-79919410D01*
X138017293Y-79973823D01*
X138080528Y-80168439D01*
X138173424Y-80350759D01*
X138293701Y-80516304D01*
X138293701Y-80516305D01*
X138438388Y-80660992D01*
X138573075Y-80758849D01*
X138615740Y-80814179D01*
X138621719Y-80883793D01*
X138589113Y-80945588D01*
X138556486Y-80969651D01*
X138532917Y-80981660D01*
X138450163Y-81041785D01*
X138350118Y-81114472D01*
X138350116Y-81114474D01*
X138350115Y-81114474D01*
X138190348Y-81274241D01*
X138190348Y-81274242D01*
X138190346Y-81274244D01*
X138171892Y-81299644D01*
X138057534Y-81457043D01*
X137954953Y-81658368D01*
X137954952Y-81658371D01*
X137885131Y-81873261D01*
X137849784Y-82096434D01*
X136839361Y-82096434D01*
X136808037Y-81898663D01*
X136758622Y-81746578D01*
X136738215Y-81683771D01*
X136738214Y-81683768D01*
X136635633Y-81482443D01*
X136502822Y-81299644D01*
X136343050Y-81139872D01*
X136160250Y-81007060D01*
X136110400Y-80981660D01*
X135958925Y-80904479D01*
X135958922Y-80904478D01*
X135744032Y-80834657D01*
X135614739Y-80814179D01*
X135520860Y-80799310D01*
X135294908Y-80799310D01*
X135220517Y-80811092D01*
X135071735Y-80834657D01*
X134856845Y-80904478D01*
X134856842Y-80904479D01*
X134655517Y-81007060D01*
X134607723Y-81041785D01*
X134472718Y-81139872D01*
X134472716Y-81139874D01*
X134472715Y-81139874D01*
X134312948Y-81299641D01*
X134312948Y-81299642D01*
X134312946Y-81299644D01*
X134279422Y-81345786D01*
X134180134Y-81482443D01*
X134077553Y-81683768D01*
X134077552Y-81683771D01*
X134007731Y-81898661D01*
X133972384Y-82121834D01*
X131843384Y-82121834D01*
X131808037Y-81898663D01*
X131758622Y-81746578D01*
X131738215Y-81683771D01*
X131738214Y-81683768D01*
X131635633Y-81482443D01*
X131502822Y-81299644D01*
X131343050Y-81139872D01*
X131160250Y-81007060D01*
X131110400Y-80981660D01*
X130958925Y-80904479D01*
X130958922Y-80904478D01*
X130744032Y-80834657D01*
X130614739Y-80814179D01*
X130520860Y-80799310D01*
X130294908Y-80799310D01*
X130220517Y-80811092D01*
X130071735Y-80834657D01*
X129856845Y-80904478D01*
X129856842Y-80904479D01*
X129655517Y-81007060D01*
X129607723Y-81041785D01*
X129472718Y-81139872D01*
X129472716Y-81139874D01*
X129472715Y-81139874D01*
X129312948Y-81299641D01*
X129312948Y-81299642D01*
X129312946Y-81299644D01*
X129279422Y-81345786D01*
X129180134Y-81482443D01*
X129077553Y-81683768D01*
X129077552Y-81683771D01*
X129007731Y-81898661D01*
X128972384Y-82121834D01*
X128595092Y-82121834D01*
X128575837Y-82000263D01*
X128506014Y-81785369D01*
X128506014Y-81785368D01*
X128403433Y-81584043D01*
X128338623Y-81494840D01*
X128270622Y-81401244D01*
X128110850Y-81241472D01*
X128007974Y-81166728D01*
X127965308Y-81111398D01*
X127959329Y-81041785D01*
X127991935Y-80979990D01*
X128007974Y-80966092D01*
X128036195Y-80945588D01*
X128110850Y-80891348D01*
X128270622Y-80731576D01*
X128403434Y-80548776D01*
X128506014Y-80347451D01*
X128575837Y-80132557D01*
X128611184Y-79909386D01*
X128611184Y-79683434D01*
X128575837Y-79460263D01*
X128527587Y-79311763D01*
X128506015Y-79245371D01*
X128506014Y-79245368D01*
X128438367Y-79112604D01*
X128403434Y-79044044D01*
X128341071Y-78958209D01*
X128308407Y-78913250D01*
X128308405Y-78913248D01*
X128302811Y-78905549D01*
X128270622Y-78861244D01*
X128254612Y-78845234D01*
X128946984Y-78845234D01*
X128946984Y-79071186D01*
X128962695Y-79170380D01*
X128982331Y-79294358D01*
X129052152Y-79509248D01*
X129052153Y-79509251D01*
X129141260Y-79684132D01*
X129154734Y-79710576D01*
X129287546Y-79893376D01*
X129447318Y-80053148D01*
X129630118Y-80185960D01*
X129709094Y-80226200D01*
X129831442Y-80288540D01*
X129831445Y-80288541D01*
X129934570Y-80322048D01*
X130046337Y-80358363D01*
X130269508Y-80393710D01*
X130269509Y-80393710D01*
X130495459Y-80393710D01*
X130495460Y-80393710D01*
X130718631Y-80358363D01*
X130933525Y-80288540D01*
X131134850Y-80185960D01*
X131317650Y-80053148D01*
X131477422Y-79893376D01*
X131610234Y-79710576D01*
X131712814Y-79509251D01*
X131782637Y-79294357D01*
X131817984Y-79071186D01*
X131817984Y-78855892D01*
X134082484Y-78855892D01*
X134082484Y-79060527D01*
X134114493Y-79262627D01*
X134177728Y-79457241D01*
X134270625Y-79639560D01*
X134270631Y-79639569D01*
X134303007Y-79684131D01*
X134303008Y-79684132D01*
X134982484Y-79004656D01*
X134982484Y-79010871D01*
X135009743Y-79112604D01*
X135062404Y-79203816D01*
X135136878Y-79278290D01*
X135228090Y-79330951D01*
X135329823Y-79358210D01*
X135336037Y-79358210D01*
X134656560Y-80037684D01*
X134701134Y-80070069D01*
X134883452Y-80162965D01*
X135078066Y-80226200D01*
X135280167Y-80258210D01*
X135484801Y-80258210D01*
X135686901Y-80226200D01*
X135881515Y-80162965D01*
X136063833Y-80070069D01*
X136108405Y-80037684D01*
X135428931Y-79358210D01*
X135435145Y-79358210D01*
X135536878Y-79330951D01*
X135628090Y-79278290D01*
X135702564Y-79203816D01*
X135755225Y-79112604D01*
X135782484Y-79010871D01*
X135782484Y-79004658D01*
X136461958Y-79684132D01*
X136461958Y-79684131D01*
X136494343Y-79639559D01*
X136587239Y-79457239D01*
X136599939Y-79418155D01*
X136599939Y-79418154D01*
X136650474Y-79262627D01*
X136682484Y-79060527D01*
X136682484Y-78855892D01*
X136650474Y-78653792D01*
X136587239Y-78459178D01*
X136494343Y-78276860D01*
X136461958Y-78232287D01*
X136461958Y-78232286D01*
X135782484Y-78911761D01*
X135782484Y-78905549D01*
X135755225Y-78803816D01*
X135702564Y-78712604D01*
X135628090Y-78638130D01*
X135536878Y-78585469D01*
X135435145Y-78558210D01*
X135428930Y-78558210D01*
X136108406Y-77878734D01*
X136108405Y-77878733D01*
X136063843Y-77846357D01*
X136063834Y-77846351D01*
X135881515Y-77753454D01*
X135686901Y-77690219D01*
X135484801Y-77658210D01*
X135280167Y-77658210D01*
X135078066Y-77690219D01*
X134883452Y-77753454D01*
X134701128Y-77846353D01*
X134656561Y-77878733D01*
X134656561Y-77878734D01*
X135336038Y-78558210D01*
X135329823Y-78558210D01*
X135228090Y-78585469D01*
X135136878Y-78638130D01*
X135062404Y-78712604D01*
X135009743Y-78803816D01*
X134982484Y-78905549D01*
X134982484Y-78911763D01*
X134303008Y-78232287D01*
X134303007Y-78232287D01*
X134270627Y-78276854D01*
X134177728Y-78459178D01*
X134114493Y-78653792D01*
X134082484Y-78855892D01*
X131817984Y-78855892D01*
X131817984Y-78845234D01*
X131782637Y-78622063D01*
X131747725Y-78514616D01*
X131712815Y-78407171D01*
X131712814Y-78407168D01*
X131623707Y-78232287D01*
X131610234Y-78205844D01*
X131477422Y-78023044D01*
X131317650Y-77863272D01*
X131134850Y-77730460D01*
X130933525Y-77627879D01*
X130933522Y-77627878D01*
X130718632Y-77558057D01*
X130607045Y-77540383D01*
X130495460Y-77522710D01*
X130269508Y-77522710D01*
X130195117Y-77534492D01*
X130046335Y-77558057D01*
X129831445Y-77627878D01*
X129831442Y-77627879D01*
X129630117Y-77730460D01*
X129598469Y-77753454D01*
X129447318Y-77863272D01*
X129447316Y-77863274D01*
X129447315Y-77863274D01*
X129287548Y-78023041D01*
X129287548Y-78023042D01*
X129287546Y-78023044D01*
X129234694Y-78095789D01*
X129154734Y-78205843D01*
X129052153Y-78407168D01*
X129052152Y-78407171D01*
X128982331Y-78622061D01*
X128950582Y-78822515D01*
X128946984Y-78845234D01*
X128254612Y-78845234D01*
X128110850Y-78701472D01*
X128103657Y-78696246D01*
X128007974Y-78626728D01*
X127965308Y-78571398D01*
X127959329Y-78501785D01*
X127991935Y-78439990D01*
X128007974Y-78426092D01*
X128041933Y-78401419D01*
X128110850Y-78351348D01*
X128270622Y-78191576D01*
X128403434Y-78008776D01*
X128506014Y-77807451D01*
X128575837Y-77592557D01*
X128611184Y-77369386D01*
X128611184Y-77143434D01*
X128575837Y-76920263D01*
X128562563Y-76879410D01*
X140828781Y-76879410D01*
X143840322Y-76879410D01*
X143810284Y-77030426D01*
X143810284Y-77228394D01*
X143840322Y-77379410D01*
X140828782Y-77379410D01*
X140853780Y-77569294D01*
X140853783Y-77569307D01*
X140930119Y-77854200D01*
X140930122Y-77854210D01*
X141042988Y-78126691D01*
X141042993Y-78126702D01*
X141190458Y-78382117D01*
X141190469Y-78382133D01*
X141370013Y-78616119D01*
X141370019Y-78616126D01*
X141578567Y-78824674D01*
X141578574Y-78824680D01*
X141812560Y-79004224D01*
X141812576Y-79004235D01*
X142067991Y-79151700D01*
X142068002Y-79151705D01*
X142340483Y-79264571D01*
X142340493Y-79264574D01*
X142625386Y-79340910D01*
X142625399Y-79340913D01*
X142917800Y-79379408D01*
X142917818Y-79379410D01*
X144565284Y-79379410D01*
X144565284Y-78104371D01*
X144716300Y-78134410D01*
X144914268Y-78134410D01*
X145065284Y-78104371D01*
X145065284Y-79379410D01*
X146712750Y-79379410D01*
X146712767Y-79379408D01*
X147005168Y-79340913D01*
X147005181Y-79340910D01*
X147290074Y-79264574D01*
X147290084Y-79264571D01*
X147562565Y-79151705D01*
X147562576Y-79151700D01*
X147817991Y-79004235D01*
X147818007Y-79004224D01*
X148051993Y-78824680D01*
X148052000Y-78824674D01*
X148260548Y-78616126D01*
X148260554Y-78616119D01*
X148440098Y-78382133D01*
X148440109Y-78382117D01*
X148587574Y-78126702D01*
X148587579Y-78126691D01*
X148700445Y-77854210D01*
X148700448Y-77854200D01*
X148776784Y-77569307D01*
X148776787Y-77569294D01*
X148801786Y-77379410D01*
X145790246Y-77379410D01*
X145820284Y-77228394D01*
X145820284Y-77030426D01*
X145790246Y-76879410D01*
X148801786Y-76879410D01*
X148776787Y-76689525D01*
X148776784Y-76689512D01*
X148700448Y-76404619D01*
X148700445Y-76404609D01*
X148587579Y-76132128D01*
X148587574Y-76132117D01*
X148440109Y-75876702D01*
X148440098Y-75876686D01*
X148260554Y-75642700D01*
X148260548Y-75642693D01*
X148052000Y-75434145D01*
X148051993Y-75434139D01*
X147818007Y-75254595D01*
X147817991Y-75254584D01*
X147562576Y-75107119D01*
X147562565Y-75107114D01*
X147290084Y-74994248D01*
X147290074Y-74994245D01*
X147005181Y-74917909D01*
X147005168Y-74917906D01*
X146712767Y-74879411D01*
X146712750Y-74879410D01*
X145065284Y-74879410D01*
X145065284Y-76154448D01*
X144914268Y-76124410D01*
X144716300Y-76124410D01*
X144565284Y-76154448D01*
X144565284Y-74879410D01*
X142917818Y-74879410D01*
X142917800Y-74879411D01*
X142625399Y-74917906D01*
X142625386Y-74917909D01*
X142340493Y-74994245D01*
X142340483Y-74994248D01*
X142068002Y-75107114D01*
X142067991Y-75107119D01*
X141812576Y-75254584D01*
X141812560Y-75254595D01*
X141578574Y-75434139D01*
X141578567Y-75434145D01*
X141370019Y-75642693D01*
X141370013Y-75642700D01*
X141190469Y-75876686D01*
X141190458Y-75876702D01*
X141042993Y-76132117D01*
X141042988Y-76132128D01*
X140930122Y-76404609D01*
X140930119Y-76404619D01*
X140853783Y-76689512D01*
X140853780Y-76689525D01*
X140828781Y-76879410D01*
X128562563Y-76879410D01*
X128506014Y-76705369D01*
X128506014Y-76705368D01*
X128403433Y-76504043D01*
X128270622Y-76321244D01*
X128110850Y-76161472D01*
X127928050Y-76028660D01*
X127915252Y-76022139D01*
X127726725Y-75926079D01*
X127726722Y-75926078D01*
X127511832Y-75856257D01*
X127400245Y-75838583D01*
X127288660Y-75820910D01*
X126262708Y-75820910D01*
X126188317Y-75832692D01*
X126039535Y-75856257D01*
X125824645Y-75926078D01*
X125824642Y-75926079D01*
X125623317Y-76028660D01*
X125557034Y-76076818D01*
X125440518Y-76161472D01*
X125440516Y-76161474D01*
X125440515Y-76161474D01*
X125280748Y-76321241D01*
X125280748Y-76321242D01*
X125280746Y-76321244D01*
X125232734Y-76387327D01*
X125147934Y-76504043D01*
X125045353Y-76705368D01*
X125045352Y-76705371D01*
X124975531Y-76920261D01*
X124940184Y-77143434D01*
X118451183Y-77143434D01*
X118451183Y-76644430D01*
X118445100Y-76567124D01*
X118396923Y-76387327D01*
X118354670Y-76304401D01*
X118312419Y-76221475D01*
X118312417Y-76221473D01*
X118263828Y-76161472D01*
X118195276Y-76076818D01*
X118109663Y-76007489D01*
X118050620Y-75959676D01*
X118050618Y-75959674D01*
X117927018Y-75896699D01*
X117884767Y-75875171D01*
X117704970Y-75826994D01*
X117704969Y-75826993D01*
X117704966Y-75826993D01*
X117642103Y-75822046D01*
X117627665Y-75820910D01*
X117627663Y-75820910D01*
X115603713Y-75820910D01*
X115603694Y-75820911D01*
X115526401Y-75826993D01*
X115346601Y-75875171D01*
X115180749Y-75959674D01*
X115180748Y-75959675D01*
X115121705Y-76007489D01*
X115057218Y-76034381D01*
X114988429Y-76022139D01*
X114937179Y-75974651D01*
X114921196Y-75930521D01*
X114920492Y-75926078D01*
X114917037Y-75904263D01*
X114847214Y-75689369D01*
X114847214Y-75689368D01*
X114744633Y-75488043D01*
X114611822Y-75305244D01*
X114452050Y-75145472D01*
X114269250Y-75012660D01*
X114067925Y-74910079D01*
X114067922Y-74910078D01*
X113853032Y-74840257D01*
X113741445Y-74822583D01*
X113629860Y-74804910D01*
X113403908Y-74804910D01*
X113329517Y-74816692D01*
X113180735Y-74840257D01*
X112965845Y-74910078D01*
X112965842Y-74910079D01*
X112764517Y-75012660D01*
X112748981Y-75023948D01*
X112581718Y-75145472D01*
X112581716Y-75145474D01*
X112581715Y-75145474D01*
X112421948Y-75305241D01*
X112421948Y-75305242D01*
X112421946Y-75305244D01*
X112404569Y-75329162D01*
X112289134Y-75488043D01*
X112186553Y-75689368D01*
X112186552Y-75689371D01*
X112116731Y-75904261D01*
X112081384Y-76127434D01*
X112081384Y-76353385D01*
X112116731Y-76576558D01*
X112186552Y-76791448D01*
X112186553Y-76791451D01*
X112253583Y-76923004D01*
X112289134Y-76992776D01*
X112421946Y-77175576D01*
X112581718Y-77335348D01*
X112764518Y-77468160D01*
X112863262Y-77518472D01*
X112965842Y-77570740D01*
X112965845Y-77570741D01*
X113032989Y-77592557D01*
X113180737Y-77640563D01*
X113403908Y-77675910D01*
X113403909Y-77675910D01*
X113629859Y-77675910D01*
X113629860Y-77675910D01*
X113853031Y-77640563D01*
X114067925Y-77570740D01*
X114269250Y-77468160D01*
X114452050Y-77335348D01*
X114568506Y-77218891D01*
X114629825Y-77185409D01*
X114699517Y-77190393D01*
X114755451Y-77232264D01*
X114779868Y-77297728D01*
X114780184Y-77306575D01*
X114780184Y-77868380D01*
X114780185Y-77868399D01*
X114786267Y-77945692D01*
X114786267Y-77945695D01*
X114786268Y-77945696D01*
X114834445Y-78125493D01*
X114855973Y-78167744D01*
X114918948Y-78291344D01*
X114918950Y-78291346D01*
X114977521Y-78363673D01*
X115036092Y-78436002D01*
X115125408Y-78508329D01*
X115180747Y-78553143D01*
X115180748Y-78553144D01*
X115193031Y-78559402D01*
X115243828Y-78607374D01*
X115260625Y-78675195D01*
X115238090Y-78741330D01*
X115224421Y-78757569D01*
X115120745Y-78861245D01*
X114987932Y-79044045D01*
X114932438Y-79152958D01*
X114884464Y-79203753D01*
X114816642Y-79220548D01*
X114750508Y-79198010D01*
X114711469Y-79152956D01*
X114643035Y-79018645D01*
X114599125Y-78958209D01*
X114510222Y-78835844D01*
X114350450Y-78676072D01*
X114167650Y-78543260D01*
X114086251Y-78501785D01*
X113966325Y-78440679D01*
X113966322Y-78440678D01*
X113751432Y-78370857D01*
X113628238Y-78351345D01*
X113528260Y-78335510D01*
X113302308Y-78335510D01*
X113227917Y-78347292D01*
X113079135Y-78370857D01*
X112864245Y-78440678D01*
X112864242Y-78440679D01*
X112662917Y-78543260D01*
X112574673Y-78607374D01*
X112480118Y-78676072D01*
X112480116Y-78676074D01*
X112480115Y-78676074D01*
X112320348Y-78835841D01*
X112320348Y-78835842D01*
X112320346Y-78835844D01*
X112301892Y-78861244D01*
X112187534Y-79018643D01*
X112084953Y-79219968D01*
X112084952Y-79219971D01*
X112015131Y-79434861D01*
X112003349Y-79509251D01*
X111979784Y-79658034D01*
X109850784Y-79658034D01*
X109815437Y-79434863D01*
X109760106Y-79264571D01*
X109745615Y-79219971D01*
X109745614Y-79219968D01*
X109655974Y-79044040D01*
X109643034Y-79018644D01*
X109510222Y-78835844D01*
X109350450Y-78676072D01*
X109167650Y-78543260D01*
X109086251Y-78501785D01*
X108966325Y-78440679D01*
X108966322Y-78440678D01*
X108751432Y-78370857D01*
X108628238Y-78351345D01*
X108528260Y-78335510D01*
X108302308Y-78335510D01*
X108227917Y-78347292D01*
X108079135Y-78370857D01*
X107864245Y-78440678D01*
X107864242Y-78440679D01*
X107662917Y-78543260D01*
X107574673Y-78607374D01*
X107480118Y-78676072D01*
X107480116Y-78676074D01*
X107480115Y-78676074D01*
X107320348Y-78835841D01*
X107320348Y-78835842D01*
X107320346Y-78835844D01*
X107301892Y-78861244D01*
X107187534Y-79018643D01*
X107084953Y-79219968D01*
X107084952Y-79219971D01*
X107015131Y-79434861D01*
X107003349Y-79509251D01*
X106979784Y-79658034D01*
X95800500Y-79658034D01*
X95800500Y-78918535D01*
X96653430Y-78918535D01*
X101036584Y-78918535D01*
X101036584Y-77105085D01*
X96653430Y-77105085D01*
X96653430Y-78918535D01*
X95800500Y-78918535D01*
X95800500Y-76127434D01*
X101921384Y-76127434D01*
X101921384Y-76353385D01*
X101956731Y-76576558D01*
X102026552Y-76791448D01*
X102026553Y-76791451D01*
X102093583Y-76923004D01*
X102129134Y-76992776D01*
X102261946Y-77175576D01*
X102421718Y-77335348D01*
X102604518Y-77468160D01*
X102703262Y-77518472D01*
X102805842Y-77570740D01*
X102805845Y-77570741D01*
X102872989Y-77592557D01*
X103020737Y-77640563D01*
X103243908Y-77675910D01*
X103243909Y-77675910D01*
X103469859Y-77675910D01*
X103469860Y-77675910D01*
X103693031Y-77640563D01*
X103907925Y-77570740D01*
X104109250Y-77468160D01*
X104292050Y-77335348D01*
X104451822Y-77175576D01*
X104584634Y-76992776D01*
X104687214Y-76791451D01*
X104757037Y-76576557D01*
X104792384Y-76353386D01*
X104792384Y-76127434D01*
X104757037Y-75904263D01*
X104687214Y-75689369D01*
X104687214Y-75689368D01*
X104584633Y-75488043D01*
X104451822Y-75305244D01*
X104292050Y-75145472D01*
X104109250Y-75012660D01*
X103907925Y-74910079D01*
X103907922Y-74910078D01*
X103693032Y-74840257D01*
X103581445Y-74822583D01*
X103469860Y-74804910D01*
X103243908Y-74804910D01*
X103169517Y-74816692D01*
X103020735Y-74840257D01*
X102805845Y-74910078D01*
X102805842Y-74910079D01*
X102604517Y-75012660D01*
X102588981Y-75023948D01*
X102421718Y-75145472D01*
X102421716Y-75145474D01*
X102421715Y-75145474D01*
X102261948Y-75305241D01*
X102261948Y-75305242D01*
X102261946Y-75305244D01*
X102244569Y-75329162D01*
X102129134Y-75488043D01*
X102026553Y-75689368D01*
X102026552Y-75689371D01*
X101956731Y-75904261D01*
X101921384Y-76127434D01*
X95800500Y-76127434D01*
X95800500Y-73816034D01*
X115027784Y-73816034D01*
X115027784Y-74041985D01*
X115063131Y-74265158D01*
X115132952Y-74480048D01*
X115132953Y-74480051D01*
X115235534Y-74681376D01*
X115368346Y-74864176D01*
X115528118Y-75023948D01*
X115710918Y-75156760D01*
X115809662Y-75207072D01*
X115912242Y-75259340D01*
X115912245Y-75259341D01*
X116019690Y-75294251D01*
X116127137Y-75329163D01*
X116350308Y-75364510D01*
X116350309Y-75364510D01*
X116576259Y-75364510D01*
X116576260Y-75364510D01*
X116799431Y-75329163D01*
X117014325Y-75259340D01*
X117215650Y-75156760D01*
X117398450Y-75023948D01*
X117558222Y-74864176D01*
X117691034Y-74681376D01*
X117793614Y-74480051D01*
X117863437Y-74265157D01*
X117898784Y-74041986D01*
X117898784Y-73816034D01*
X125187784Y-73816034D01*
X125187784Y-74041985D01*
X125223131Y-74265158D01*
X125292952Y-74480048D01*
X125292953Y-74480051D01*
X125395534Y-74681376D01*
X125528346Y-74864176D01*
X125688118Y-75023948D01*
X125870918Y-75156760D01*
X125969662Y-75207072D01*
X126072242Y-75259340D01*
X126072245Y-75259341D01*
X126179690Y-75294251D01*
X126287137Y-75329163D01*
X126510308Y-75364510D01*
X126510309Y-75364510D01*
X126736259Y-75364510D01*
X126736260Y-75364510D01*
X126959431Y-75329163D01*
X127174325Y-75259340D01*
X127375650Y-75156760D01*
X127558450Y-75023948D01*
X127718222Y-74864176D01*
X127851034Y-74681376D01*
X127953614Y-74480051D01*
X128023437Y-74265157D01*
X128058784Y-74041986D01*
X128058784Y-73816034D01*
X128023437Y-73592863D01*
X127953614Y-73377969D01*
X127953614Y-73377968D01*
X127851033Y-73176643D01*
X127718222Y-72993844D01*
X127558450Y-72834072D01*
X127375650Y-72701260D01*
X127174325Y-72598679D01*
X127174322Y-72598678D01*
X126959432Y-72528857D01*
X126847845Y-72511183D01*
X126736260Y-72493510D01*
X126510308Y-72493510D01*
X126435917Y-72505292D01*
X126287135Y-72528857D01*
X126072245Y-72598678D01*
X126072242Y-72598679D01*
X125870917Y-72701260D01*
X125766623Y-72777034D01*
X125688118Y-72834072D01*
X125688116Y-72834074D01*
X125688115Y-72834074D01*
X125528348Y-72993841D01*
X125528348Y-72993842D01*
X125528346Y-72993844D01*
X125471308Y-73072349D01*
X125395534Y-73176643D01*
X125292953Y-73377968D01*
X125292952Y-73377971D01*
X125223131Y-73592861D01*
X125187784Y-73816034D01*
X117898784Y-73816034D01*
X117863437Y-73592863D01*
X117793614Y-73377969D01*
X117793614Y-73377968D01*
X117691033Y-73176643D01*
X117558222Y-72993844D01*
X117398450Y-72834072D01*
X117215650Y-72701260D01*
X117014325Y-72598679D01*
X117014322Y-72598678D01*
X116799432Y-72528857D01*
X116687845Y-72511183D01*
X116576260Y-72493510D01*
X116350308Y-72493510D01*
X116275917Y-72505292D01*
X116127135Y-72528857D01*
X115912245Y-72598678D01*
X115912242Y-72598679D01*
X115710917Y-72701260D01*
X115606623Y-72777034D01*
X115528118Y-72834072D01*
X115528116Y-72834074D01*
X115528115Y-72834074D01*
X115368348Y-72993841D01*
X115368348Y-72993842D01*
X115368346Y-72993844D01*
X115311308Y-73072349D01*
X115235534Y-73176643D01*
X115132953Y-73377968D01*
X115132952Y-73377971D01*
X115063131Y-73592861D01*
X115027784Y-73816034D01*
X95800500Y-73816034D01*
X95800500Y-71508805D01*
X100349025Y-71508805D01*
X149425870Y-71508805D01*
X149425870Y-64868269D01*
X100349025Y-64868269D01*
X100349025Y-71508805D01*
X95800500Y-71508805D01*
X95800500Y-64174500D01*
X95820185Y-64107461D01*
X95872989Y-64061706D01*
X95924500Y-64050500D01*
X151725500Y-64050500D01*
X151792539Y-64070185D01*
G37*
G04 #@! TD.AperFunction*
M02*
