G04 #@! TF.GenerationSoftware,KiCad,Pcbnew,9.0.5*
G04 #@! TF.CreationDate,2026-07-17T16:00:20-04:00*
G04 #@! TF.ProjectId,noise_generator,6e6f6973-655f-4676-956e-657261746f72,rev?*
G04 #@! TF.SameCoordinates,Original*
G04 #@! TF.FileFunction,Legend,Top*
G04 #@! TF.FilePolarity,Positive*
%FSLAX46Y46*%
G04 Gerber Fmt 4.6, Leading zero omitted, Abs format (unit mm)*
G04 Created by KiCad (PCBNEW 9.0.5) date 2026-07-17 16:00:20*
%MOMM*%
%LPD*%
G01*
G04 APERTURE LIST*
%ADD10C,0.150000*%
%ADD11C,0.120000*%
G04 APERTURE END LIST*
D10*
X111677955Y-89989065D02*
X110677955Y-89989065D01*
X110677955Y-89989065D02*
X110677955Y-89750970D01*
X110677955Y-89750970D02*
X110725574Y-89608113D01*
X110725574Y-89608113D02*
X110820812Y-89512875D01*
X110820812Y-89512875D02*
X110916050Y-89465256D01*
X110916050Y-89465256D02*
X111106526Y-89417637D01*
X111106526Y-89417637D02*
X111249383Y-89417637D01*
X111249383Y-89417637D02*
X111439859Y-89465256D01*
X111439859Y-89465256D02*
X111535097Y-89512875D01*
X111535097Y-89512875D02*
X111630336Y-89608113D01*
X111630336Y-89608113D02*
X111677955Y-89750970D01*
X111677955Y-89750970D02*
X111677955Y-89989065D01*
X111677955Y-88465256D02*
X111677955Y-89036684D01*
X111677955Y-88750970D02*
X110677955Y-88750970D01*
X110677955Y-88750970D02*
X110820812Y-88846208D01*
X110820812Y-88846208D02*
X110916050Y-88941446D01*
X110916050Y-88941446D02*
X110963669Y-89036684D01*
X111107955Y-83162875D02*
X110107955Y-83162875D01*
X111107955Y-82591447D02*
X110536526Y-83020018D01*
X110107955Y-82591447D02*
X110679383Y-83162875D01*
X128865333Y-86560819D02*
X128532000Y-86084628D01*
X128293905Y-86560819D02*
X128293905Y-85560819D01*
X128293905Y-85560819D02*
X128674857Y-85560819D01*
X128674857Y-85560819D02*
X128770095Y-85608438D01*
X128770095Y-85608438D02*
X128817714Y-85656057D01*
X128817714Y-85656057D02*
X128865333Y-85751295D01*
X128865333Y-85751295D02*
X128865333Y-85894152D01*
X128865333Y-85894152D02*
X128817714Y-85989390D01*
X128817714Y-85989390D02*
X128770095Y-86037009D01*
X128770095Y-86037009D02*
X128674857Y-86084628D01*
X128674857Y-86084628D02*
X128293905Y-86084628D01*
X129246286Y-85656057D02*
X129293905Y-85608438D01*
X129293905Y-85608438D02*
X129389143Y-85560819D01*
X129389143Y-85560819D02*
X129627238Y-85560819D01*
X129627238Y-85560819D02*
X129722476Y-85608438D01*
X129722476Y-85608438D02*
X129770095Y-85656057D01*
X129770095Y-85656057D02*
X129817714Y-85751295D01*
X129817714Y-85751295D02*
X129817714Y-85846533D01*
X129817714Y-85846533D02*
X129770095Y-85989390D01*
X129770095Y-85989390D02*
X129198667Y-86560819D01*
X129198667Y-86560819D02*
X129817714Y-86560819D01*
X106005333Y-74368819D02*
X105672000Y-73892628D01*
X105433905Y-74368819D02*
X105433905Y-73368819D01*
X105433905Y-73368819D02*
X105814857Y-73368819D01*
X105814857Y-73368819D02*
X105910095Y-73416438D01*
X105910095Y-73416438D02*
X105957714Y-73464057D01*
X105957714Y-73464057D02*
X106005333Y-73559295D01*
X106005333Y-73559295D02*
X106005333Y-73702152D01*
X106005333Y-73702152D02*
X105957714Y-73797390D01*
X105957714Y-73797390D02*
X105910095Y-73845009D01*
X105910095Y-73845009D02*
X105814857Y-73892628D01*
X105814857Y-73892628D02*
X105433905Y-73892628D01*
X106862476Y-73702152D02*
X106862476Y-74368819D01*
X106624381Y-73321200D02*
X106386286Y-74035485D01*
X106386286Y-74035485D02*
X107005333Y-74035485D01*
X139366666Y-73368819D02*
X139366666Y-74083104D01*
X139366666Y-74083104D02*
X139319047Y-74225961D01*
X139319047Y-74225961D02*
X139223809Y-74321200D01*
X139223809Y-74321200D02*
X139080952Y-74368819D01*
X139080952Y-74368819D02*
X138985714Y-74368819D01*
X140366666Y-74368819D02*
X139795238Y-74368819D01*
X140080952Y-74368819D02*
X140080952Y-73368819D01*
X140080952Y-73368819D02*
X139985714Y-73511676D01*
X139985714Y-73511676D02*
X139890476Y-73606914D01*
X139890476Y-73606914D02*
X139795238Y-73654533D01*
X121376617Y-72013829D02*
X121043284Y-71537638D01*
X120805189Y-72013829D02*
X120805189Y-71013829D01*
X120805189Y-71013829D02*
X121186141Y-71013829D01*
X121186141Y-71013829D02*
X121281379Y-71061448D01*
X121281379Y-71061448D02*
X121328998Y-71109067D01*
X121328998Y-71109067D02*
X121376617Y-71204305D01*
X121376617Y-71204305D02*
X121376617Y-71347162D01*
X121376617Y-71347162D02*
X121328998Y-71442400D01*
X121328998Y-71442400D02*
X121281379Y-71490019D01*
X121281379Y-71490019D02*
X121186141Y-71537638D01*
X121186141Y-71537638D02*
X120805189Y-71537638D01*
X122328998Y-72013829D02*
X121757570Y-72013829D01*
X122043284Y-72013829D02*
X122043284Y-71013829D01*
X122043284Y-71013829D02*
X121948046Y-71156686D01*
X121948046Y-71156686D02*
X121852808Y-71251924D01*
X121852808Y-71251924D02*
X121757570Y-71299543D01*
X116920085Y-85887597D02*
X116920085Y-86697120D01*
X116920085Y-86697120D02*
X116967704Y-86792358D01*
X116967704Y-86792358D02*
X117015323Y-86839978D01*
X117015323Y-86839978D02*
X117110561Y-86887597D01*
X117110561Y-86887597D02*
X117301037Y-86887597D01*
X117301037Y-86887597D02*
X117396275Y-86839978D01*
X117396275Y-86839978D02*
X117443894Y-86792358D01*
X117443894Y-86792358D02*
X117491513Y-86697120D01*
X117491513Y-86697120D02*
X117491513Y-85887597D01*
X118491513Y-86887597D02*
X117920085Y-86887597D01*
X118205799Y-86887597D02*
X118205799Y-85887597D01*
X118205799Y-85887597D02*
X118110561Y-86030454D01*
X118110561Y-86030454D02*
X118015323Y-86125692D01*
X118015323Y-86125692D02*
X117920085Y-86173311D01*
X96694666Y-77432819D02*
X96694666Y-78147104D01*
X96694666Y-78147104D02*
X96647047Y-78289961D01*
X96647047Y-78289961D02*
X96551809Y-78385200D01*
X96551809Y-78385200D02*
X96408952Y-78432819D01*
X96408952Y-78432819D02*
X96313714Y-78432819D01*
X97123238Y-77528057D02*
X97170857Y-77480438D01*
X97170857Y-77480438D02*
X97266095Y-77432819D01*
X97266095Y-77432819D02*
X97504190Y-77432819D01*
X97504190Y-77432819D02*
X97599428Y-77480438D01*
X97599428Y-77480438D02*
X97647047Y-77528057D01*
X97647047Y-77528057D02*
X97694666Y-77623295D01*
X97694666Y-77623295D02*
X97694666Y-77718533D01*
X97694666Y-77718533D02*
X97647047Y-77861390D01*
X97647047Y-77861390D02*
X97075619Y-78432819D01*
X97075619Y-78432819D02*
X97694666Y-78432819D01*
X135286434Y-77155178D02*
X135238815Y-77202798D01*
X135238815Y-77202798D02*
X135095958Y-77250417D01*
X135095958Y-77250417D02*
X135000720Y-77250417D01*
X135000720Y-77250417D02*
X134857863Y-77202798D01*
X134857863Y-77202798D02*
X134762625Y-77107559D01*
X134762625Y-77107559D02*
X134715006Y-77012321D01*
X134715006Y-77012321D02*
X134667387Y-76821845D01*
X134667387Y-76821845D02*
X134667387Y-76678988D01*
X134667387Y-76678988D02*
X134715006Y-76488512D01*
X134715006Y-76488512D02*
X134762625Y-76393274D01*
X134762625Y-76393274D02*
X134857863Y-76298036D01*
X134857863Y-76298036D02*
X135000720Y-76250417D01*
X135000720Y-76250417D02*
X135095958Y-76250417D01*
X135095958Y-76250417D02*
X135238815Y-76298036D01*
X135238815Y-76298036D02*
X135286434Y-76345655D01*
X136143577Y-76583750D02*
X136143577Y-77250417D01*
X135905482Y-76202798D02*
X135667387Y-76917083D01*
X135667387Y-76917083D02*
X136286434Y-76917083D01*
X135318888Y-84717148D02*
X135271269Y-84764768D01*
X135271269Y-84764768D02*
X135128412Y-84812387D01*
X135128412Y-84812387D02*
X135033174Y-84812387D01*
X135033174Y-84812387D02*
X134890317Y-84764768D01*
X134890317Y-84764768D02*
X134795079Y-84669529D01*
X134795079Y-84669529D02*
X134747460Y-84574291D01*
X134747460Y-84574291D02*
X134699841Y-84383815D01*
X134699841Y-84383815D02*
X134699841Y-84240958D01*
X134699841Y-84240958D02*
X134747460Y-84050482D01*
X134747460Y-84050482D02*
X134795079Y-83955244D01*
X134795079Y-83955244D02*
X134890317Y-83860006D01*
X134890317Y-83860006D02*
X135033174Y-83812387D01*
X135033174Y-83812387D02*
X135128412Y-83812387D01*
X135128412Y-83812387D02*
X135271269Y-83860006D01*
X135271269Y-83860006D02*
X135318888Y-83907625D01*
X136271269Y-84812387D02*
X135699841Y-84812387D01*
X135985555Y-84812387D02*
X135985555Y-83812387D01*
X135985555Y-83812387D02*
X135890317Y-83955244D01*
X135890317Y-83955244D02*
X135795079Y-84050482D01*
X135795079Y-84050482D02*
X135699841Y-84098101D01*
X113924982Y-88141953D02*
X113877363Y-88189573D01*
X113877363Y-88189573D02*
X113734506Y-88237192D01*
X113734506Y-88237192D02*
X113639268Y-88237192D01*
X113639268Y-88237192D02*
X113496411Y-88189573D01*
X113496411Y-88189573D02*
X113401173Y-88094334D01*
X113401173Y-88094334D02*
X113353554Y-87999096D01*
X113353554Y-87999096D02*
X113305935Y-87808620D01*
X113305935Y-87808620D02*
X113305935Y-87665763D01*
X113305935Y-87665763D02*
X113353554Y-87475287D01*
X113353554Y-87475287D02*
X113401173Y-87380049D01*
X113401173Y-87380049D02*
X113496411Y-87284811D01*
X113496411Y-87284811D02*
X113639268Y-87237192D01*
X113639268Y-87237192D02*
X113734506Y-87237192D01*
X113734506Y-87237192D02*
X113877363Y-87284811D01*
X113877363Y-87284811D02*
X113924982Y-87332430D01*
X114305935Y-87332430D02*
X114353554Y-87284811D01*
X114353554Y-87284811D02*
X114448792Y-87237192D01*
X114448792Y-87237192D02*
X114686887Y-87237192D01*
X114686887Y-87237192D02*
X114782125Y-87284811D01*
X114782125Y-87284811D02*
X114829744Y-87332430D01*
X114829744Y-87332430D02*
X114877363Y-87427668D01*
X114877363Y-87427668D02*
X114877363Y-87522906D01*
X114877363Y-87522906D02*
X114829744Y-87665763D01*
X114829744Y-87665763D02*
X114258316Y-88237192D01*
X114258316Y-88237192D02*
X114877363Y-88237192D01*
X106005333Y-80369580D02*
X105957714Y-80417200D01*
X105957714Y-80417200D02*
X105814857Y-80464819D01*
X105814857Y-80464819D02*
X105719619Y-80464819D01*
X105719619Y-80464819D02*
X105576762Y-80417200D01*
X105576762Y-80417200D02*
X105481524Y-80321961D01*
X105481524Y-80321961D02*
X105433905Y-80226723D01*
X105433905Y-80226723D02*
X105386286Y-80036247D01*
X105386286Y-80036247D02*
X105386286Y-79893390D01*
X105386286Y-79893390D02*
X105433905Y-79702914D01*
X105433905Y-79702914D02*
X105481524Y-79607676D01*
X105481524Y-79607676D02*
X105576762Y-79512438D01*
X105576762Y-79512438D02*
X105719619Y-79464819D01*
X105719619Y-79464819D02*
X105814857Y-79464819D01*
X105814857Y-79464819D02*
X105957714Y-79512438D01*
X105957714Y-79512438D02*
X106005333Y-79560057D01*
X106338667Y-79464819D02*
X106957714Y-79464819D01*
X106957714Y-79464819D02*
X106624381Y-79845771D01*
X106624381Y-79845771D02*
X106767238Y-79845771D01*
X106767238Y-79845771D02*
X106862476Y-79893390D01*
X106862476Y-79893390D02*
X106910095Y-79941009D01*
X106910095Y-79941009D02*
X106957714Y-80036247D01*
X106957714Y-80036247D02*
X106957714Y-80274342D01*
X106957714Y-80274342D02*
X106910095Y-80369580D01*
X106910095Y-80369580D02*
X106862476Y-80417200D01*
X106862476Y-80417200D02*
X106767238Y-80464819D01*
X106767238Y-80464819D02*
X106481524Y-80464819D01*
X106481524Y-80464819D02*
X106386286Y-80417200D01*
X106386286Y-80417200D02*
X106338667Y-80369580D01*
X125059617Y-94254429D02*
X124726284Y-93778238D01*
X124488189Y-94254429D02*
X124488189Y-93254429D01*
X124488189Y-93254429D02*
X124869141Y-93254429D01*
X124869141Y-93254429D02*
X124964379Y-93302048D01*
X124964379Y-93302048D02*
X125011998Y-93349667D01*
X125011998Y-93349667D02*
X125059617Y-93444905D01*
X125059617Y-93444905D02*
X125059617Y-93587762D01*
X125059617Y-93587762D02*
X125011998Y-93683000D01*
X125011998Y-93683000D02*
X124964379Y-93730619D01*
X124964379Y-93730619D02*
X124869141Y-93778238D01*
X124869141Y-93778238D02*
X124488189Y-93778238D01*
X125392951Y-93254429D02*
X126011998Y-93254429D01*
X126011998Y-93254429D02*
X125678665Y-93635381D01*
X125678665Y-93635381D02*
X125821522Y-93635381D01*
X125821522Y-93635381D02*
X125916760Y-93683000D01*
X125916760Y-93683000D02*
X125964379Y-93730619D01*
X125964379Y-93730619D02*
X126011998Y-93825857D01*
X126011998Y-93825857D02*
X126011998Y-94063952D01*
X126011998Y-94063952D02*
X125964379Y-94159190D01*
X125964379Y-94159190D02*
X125916760Y-94206810D01*
X125916760Y-94206810D02*
X125821522Y-94254429D01*
X125821522Y-94254429D02*
X125535808Y-94254429D01*
X125535808Y-94254429D02*
X125440570Y-94206810D01*
X125440570Y-94206810D02*
X125392951Y-94159190D01*
D11*
X110223136Y-91970971D02*
X110223136Y-86530971D01*
X110223136Y-87550971D02*
X107283136Y-87550971D01*
X110223136Y-87430971D02*
X107283136Y-87430971D01*
X110223136Y-87310971D02*
X107283136Y-87310971D01*
X110223136Y-86530971D02*
X107283136Y-86530971D01*
X108753136Y-94460971D02*
X108753136Y-91970971D01*
X108753136Y-84040971D02*
X108753136Y-86530971D01*
X107283136Y-91970971D02*
X110223136Y-91970971D01*
X107283136Y-86530971D02*
X107283136Y-91970971D01*
X129266284Y-88153010D02*
X128496284Y-88153010D01*
X128496284Y-89523010D02*
X128496284Y-86783010D01*
X128496284Y-86783010D02*
X121956284Y-86783010D01*
X121956284Y-89523010D02*
X128496284Y-89523010D01*
X121956284Y-86783010D02*
X121956284Y-89523010D01*
X121186284Y-88153010D02*
X121956284Y-88153010D01*
X112476884Y-76240410D02*
X111706884Y-76240410D01*
X111706884Y-77610410D02*
X111706884Y-74870410D01*
X111706884Y-74870410D02*
X105166884Y-74870410D01*
X105166884Y-77610410D02*
X111706884Y-77610410D01*
X105166884Y-74870410D02*
X105166884Y-77610410D01*
X104396884Y-76240410D02*
X105166884Y-76240410D01*
X152435284Y-89709410D02*
X137435284Y-89709410D01*
X152435284Y-74709410D02*
X152435284Y-89709410D01*
X152235284Y-82209410D02*
X151235284Y-83209410D01*
X152235284Y-82209410D02*
X151235284Y-81209410D01*
X137435284Y-89709410D02*
X137435284Y-74709410D01*
X137435284Y-74709410D02*
X152435284Y-74709410D01*
X125583284Y-73929010D02*
X124813284Y-73929010D01*
X124813284Y-75299010D02*
X124813284Y-72559010D01*
X124813284Y-72559010D02*
X118273284Y-72559010D01*
X118273284Y-75299010D02*
X124813284Y-75299010D01*
X118273284Y-72559010D02*
X118273284Y-75299010D01*
X117503284Y-73929010D02*
X118273284Y-73929010D01*
X122695684Y-75926410D02*
G75*
G02*
X120695684Y-75926410I-1000000J0D01*
G01*
X124930684Y-86206410D02*
X124930684Y-75926410D01*
X124930684Y-75926410D02*
X122695684Y-75926410D01*
X120695684Y-75926410D02*
X118460684Y-75926410D01*
X118460684Y-86206410D02*
X124930684Y-86206410D01*
X118460684Y-75926410D02*
X118460684Y-86206410D01*
X95646476Y-81760586D02*
X95036476Y-82200586D01*
X95036476Y-81320586D01*
X95646476Y-81760586D01*
G36*
X95646476Y-81760586D02*
G01*
X95036476Y-82200586D01*
X95036476Y-81320586D01*
X95646476Y-81760586D01*
G37*
X101101476Y-85260586D02*
G75*
G02*
X97631476Y-85260586I-1735000J0D01*
G01*
X97631476Y-85260586D02*
G75*
G02*
X101101476Y-85260586I1735000J0D01*
G01*
X101046476Y-81327586D02*
G75*
G02*
X101046288Y-82194313I-1679997J-432999D01*
G01*
X99799476Y-83440586D02*
G75*
G02*
X98932749Y-83440398I-433000J1680000D01*
G01*
X98933476Y-80080586D02*
G75*
G02*
X99800203Y-80080774I432999J-1679997D01*
G01*
X97686476Y-82193586D02*
G75*
G02*
X97686664Y-81326859I1680000J433000D01*
G01*
X102886476Y-87480586D02*
X95646476Y-87480586D01*
X102886476Y-79540586D02*
X102886476Y-87480586D01*
X102886476Y-79540586D02*
X95646476Y-79540586D01*
X97266476Y-79540586D02*
X97266476Y-87480586D01*
X95646476Y-82060586D02*
X95646476Y-87480586D01*
X95646476Y-79540586D02*
X95646476Y-81460586D01*
X136502484Y-80328210D02*
X136502484Y-77588210D01*
X136502484Y-80328210D02*
X129262484Y-80328210D01*
X136502484Y-77588210D02*
X129262484Y-77588210D01*
X129262484Y-80328210D02*
X129262484Y-77588210D01*
X136527884Y-80864810D02*
X136527884Y-83604810D01*
X129287884Y-83604810D02*
X136527884Y-83604810D01*
X129287884Y-80864810D02*
X136527884Y-80864810D01*
X129287884Y-80864810D02*
X129287884Y-83604810D01*
X117987584Y-94291956D02*
X115247584Y-94291956D01*
X117987584Y-87051956D02*
X117987584Y-94291956D01*
X117987584Y-87051956D02*
X115247584Y-87051956D01*
X115247584Y-87051956D02*
X115247584Y-94291956D01*
X114535284Y-78401010D02*
X114535284Y-81141010D01*
X107295284Y-81141010D02*
X114535284Y-81141010D01*
X107295284Y-78401010D02*
X114535284Y-78401010D01*
X107295284Y-78401010D02*
X107295284Y-81141010D01*
X129266284Y-91429610D02*
X128496284Y-91429610D01*
X128496284Y-92799610D02*
X128496284Y-90059610D01*
X128496284Y-90059610D02*
X121956284Y-90059610D01*
X121956284Y-92799610D02*
X128496284Y-92799610D01*
X121956284Y-90059610D02*
X121956284Y-92799610D01*
X121186284Y-91429610D02*
X121956284Y-91429610D01*
M02*
